%TF.GenerationSoftware,KiCad,Pcbnew,(6.0.5)*%
%TF.CreationDate,2025-03-26T17:35:59-04:00*%
%TF.ProjectId,Wand,57616e64-2e6b-4696-9361-645f70636258,rev?*%
%TF.SameCoordinates,Original*%
%TF.FileFunction,Legend,Top*%
%TF.FilePolarity,Positive*%
%FSLAX46Y46*%
G04 Gerber Fmt 4.6, Leading zero omitted, Abs format (unit mm)*
G04 Created by KiCad (PCBNEW (6.0.5)) date 2025-03-26 17:35:59*
%MOMM*%
%LPD*%
G01*
G04 APERTURE LIST*
%ADD10C,0.300000*%
%ADD11C,0.150000*%
%ADD12C,0.120000*%
%ADD13C,0.152400*%
G04 APERTURE END LIST*
D10*
X135171571Y-89642571D02*
X135243000Y-89714000D01*
X135314428Y-89856857D01*
X135314428Y-90214000D01*
X135243000Y-90356857D01*
X135171571Y-90428285D01*
X135028714Y-90499714D01*
X134885857Y-90499714D01*
X134671571Y-90428285D01*
X133814428Y-89571142D01*
X133814428Y-90499714D01*
X134671571Y-91356857D02*
X134743000Y-91214000D01*
X134814428Y-91142571D01*
X134957285Y-91071142D01*
X135028714Y-91071142D01*
X135171571Y-91142571D01*
X135243000Y-91214000D01*
X135314428Y-91356857D01*
X135314428Y-91642571D01*
X135243000Y-91785428D01*
X135171571Y-91856857D01*
X135028714Y-91928285D01*
X134957285Y-91928285D01*
X134814428Y-91856857D01*
X134743000Y-91785428D01*
X134671571Y-91642571D01*
X134671571Y-91356857D01*
X134600142Y-91214000D01*
X134528714Y-91142571D01*
X134385857Y-91071142D01*
X134100142Y-91071142D01*
X133957285Y-91142571D01*
X133885857Y-91214000D01*
X133814428Y-91356857D01*
X133814428Y-91642571D01*
X133885857Y-91785428D01*
X133957285Y-91856857D01*
X134100142Y-91928285D01*
X134385857Y-91928285D01*
X134528714Y-91856857D01*
X134600142Y-91785428D01*
X134671571Y-91642571D01*
X133814428Y-93356857D02*
X133814428Y-92499714D01*
X133814428Y-92928285D02*
X135314428Y-92928285D01*
X135100142Y-92785428D01*
X134957285Y-92642571D01*
X134885857Y-92499714D01*
X135171571Y-93928285D02*
X135243000Y-93999714D01*
X135314428Y-94142571D01*
X135314428Y-94499714D01*
X135243000Y-94642571D01*
X135171571Y-94714000D01*
X135028714Y-94785428D01*
X134885857Y-94785428D01*
X134671571Y-94714000D01*
X133814428Y-93856857D01*
X133814428Y-94785428D01*
X134600142Y-95928285D02*
X134528714Y-96142571D01*
X134457285Y-96214000D01*
X134314428Y-96285428D01*
X134100142Y-96285428D01*
X133957285Y-96214000D01*
X133885857Y-96142571D01*
X133814428Y-95999714D01*
X133814428Y-95428285D01*
X135314428Y-95428285D01*
X135314428Y-95928285D01*
X135243000Y-96071142D01*
X135171571Y-96142571D01*
X135028714Y-96214000D01*
X134885857Y-96214000D01*
X134743000Y-96142571D01*
X134671571Y-96071142D01*
X134600142Y-95928285D01*
X134600142Y-95428285D01*
X78347000Y-110439342D02*
X78418428Y-110296485D01*
X78418428Y-110082200D01*
X78347000Y-109867914D01*
X78204142Y-109725057D01*
X78061285Y-109653628D01*
X77775571Y-109582200D01*
X77561285Y-109582200D01*
X77275571Y-109653628D01*
X77132714Y-109725057D01*
X76989857Y-109867914D01*
X76918428Y-110082200D01*
X76918428Y-110225057D01*
X76989857Y-110439342D01*
X77061285Y-110510771D01*
X77561285Y-110510771D01*
X77561285Y-110225057D01*
X76918428Y-111153628D02*
X78418428Y-111153628D01*
X76918428Y-112010771D01*
X78418428Y-112010771D01*
X76918428Y-112725057D02*
X78418428Y-112725057D01*
X78418428Y-113082200D01*
X78347000Y-113296485D01*
X78204142Y-113439342D01*
X78061285Y-113510771D01*
X77775571Y-113582200D01*
X77561285Y-113582200D01*
X77275571Y-113510771D01*
X77132714Y-113439342D01*
X76989857Y-113296485D01*
X76918428Y-113082200D01*
X76918428Y-112725057D01*
D11*
X159231295Y-99566361D02*
X159374152Y-99613980D01*
X159612247Y-99613980D01*
X159707485Y-99566361D01*
X159755104Y-99518742D01*
X159802723Y-99423504D01*
X159802723Y-99328266D01*
X159755104Y-99233028D01*
X159707485Y-99185409D01*
X159612247Y-99137790D01*
X159421771Y-99090171D01*
X159326533Y-99042552D01*
X159278914Y-98994933D01*
X159231295Y-98899695D01*
X159231295Y-98804457D01*
X159278914Y-98709219D01*
X159326533Y-98661600D01*
X159421771Y-98613980D01*
X159659866Y-98613980D01*
X159802723Y-98661600D01*
X160136057Y-98613980D02*
X160374152Y-99613980D01*
X160564628Y-98899695D01*
X160755104Y-99613980D01*
X160993200Y-98613980D01*
X161945580Y-99518742D02*
X161897961Y-99566361D01*
X161755104Y-99613980D01*
X161659866Y-99613980D01*
X161517009Y-99566361D01*
X161421771Y-99471123D01*
X161374152Y-99375885D01*
X161326533Y-99185409D01*
X161326533Y-99042552D01*
X161374152Y-98852076D01*
X161421771Y-98756838D01*
X161517009Y-98661600D01*
X161659866Y-98613980D01*
X161755104Y-98613980D01*
X161897961Y-98661600D01*
X161945580Y-98709219D01*
X162850342Y-99613980D02*
X162374152Y-99613980D01*
X162374152Y-98613980D01*
X163183676Y-99613980D02*
X163183676Y-98613980D01*
X163755104Y-99613980D02*
X163326533Y-99042552D01*
X163755104Y-98613980D02*
X163183676Y-99185409D01*
X157765714Y-113279180D02*
X157194285Y-113279180D01*
X157480000Y-113279180D02*
X157480000Y-112279180D01*
X157384761Y-112422038D01*
X157289523Y-112517276D01*
X157194285Y-112564895D01*
D10*
X133941428Y-103084571D02*
X135441428Y-103084571D01*
X133941428Y-103798857D02*
X135441428Y-103798857D01*
X133941428Y-104656000D01*
X135441428Y-104656000D01*
X135441428Y-105156000D02*
X135441428Y-106013142D01*
X133941428Y-105584571D02*
X135441428Y-105584571D01*
X135298571Y-106441714D02*
X135370000Y-106513142D01*
X135441428Y-106656000D01*
X135441428Y-107013142D01*
X135370000Y-107156000D01*
X135298571Y-107227428D01*
X135155714Y-107298857D01*
X135012857Y-107298857D01*
X134798571Y-107227428D01*
X133941428Y-106370285D01*
X133941428Y-107298857D01*
X131345857Y-103064714D02*
X131274428Y-103279000D01*
X131274428Y-103636142D01*
X131345857Y-103779000D01*
X131417285Y-103850428D01*
X131560142Y-103921857D01*
X131703000Y-103921857D01*
X131845857Y-103850428D01*
X131917285Y-103779000D01*
X131988714Y-103636142D01*
X132060142Y-103350428D01*
X132131571Y-103207571D01*
X132203000Y-103136142D01*
X132345857Y-103064714D01*
X132488714Y-103064714D01*
X132631571Y-103136142D01*
X132703000Y-103207571D01*
X132774428Y-103350428D01*
X132774428Y-103707571D01*
X132703000Y-103921857D01*
X131274428Y-104564714D02*
X132774428Y-104564714D01*
X132774428Y-104921857D01*
X132703000Y-105136142D01*
X132560142Y-105279000D01*
X132417285Y-105350428D01*
X132131571Y-105421857D01*
X131917285Y-105421857D01*
X131631571Y-105350428D01*
X131488714Y-105279000D01*
X131345857Y-105136142D01*
X131274428Y-104921857D01*
X131274428Y-104564714D01*
X132774428Y-106350428D02*
X132774428Y-106636142D01*
X132703000Y-106779000D01*
X132560142Y-106921857D01*
X132274428Y-106993285D01*
X131774428Y-106993285D01*
X131488714Y-106921857D01*
X131345857Y-106779000D01*
X131274428Y-106636142D01*
X131274428Y-106350428D01*
X131345857Y-106207571D01*
X131488714Y-106064714D01*
X131774428Y-105993285D01*
X132274428Y-105993285D01*
X132560142Y-106064714D01*
X132703000Y-106207571D01*
X132774428Y-106350428D01*
D11*
X159289904Y-106233980D02*
X159623238Y-107233980D01*
X159956571Y-106233980D01*
X160718476Y-107233980D02*
X160718476Y-106233980D01*
X160718476Y-107186361D02*
X160623238Y-107233980D01*
X160432761Y-107233980D01*
X160337523Y-107186361D01*
X160289904Y-107138742D01*
X160242285Y-107043504D01*
X160242285Y-106757790D01*
X160289904Y-106662552D01*
X160337523Y-106614933D01*
X160432761Y-106567314D01*
X160623238Y-106567314D01*
X160718476Y-106614933D01*
X161623238Y-107233980D02*
X161623238Y-106233980D01*
X161623238Y-107186361D02*
X161528000Y-107233980D01*
X161337523Y-107233980D01*
X161242285Y-107186361D01*
X161194666Y-107138742D01*
X161147047Y-107043504D01*
X161147047Y-106757790D01*
X161194666Y-106662552D01*
X161242285Y-106614933D01*
X161337523Y-106567314D01*
X161528000Y-106567314D01*
X161623238Y-106614933D01*
X159929580Y-109773980D02*
X159596247Y-109297790D01*
X159358152Y-109773980D02*
X159358152Y-108773980D01*
X159739104Y-108773980D01*
X159834342Y-108821600D01*
X159881961Y-108869219D01*
X159929580Y-108964457D01*
X159929580Y-109107314D01*
X159881961Y-109202552D01*
X159834342Y-109250171D01*
X159739104Y-109297790D01*
X159358152Y-109297790D01*
X160310533Y-109726361D02*
X160453390Y-109773980D01*
X160691485Y-109773980D01*
X160786723Y-109726361D01*
X160834342Y-109678742D01*
X160881961Y-109583504D01*
X160881961Y-109488266D01*
X160834342Y-109393028D01*
X160786723Y-109345409D01*
X160691485Y-109297790D01*
X160501009Y-109250171D01*
X160405771Y-109202552D01*
X160358152Y-109154933D01*
X160310533Y-109059695D01*
X160310533Y-108964457D01*
X160358152Y-108869219D01*
X160405771Y-108821600D01*
X160501009Y-108773980D01*
X160739104Y-108773980D01*
X160881961Y-108821600D01*
X161167676Y-108773980D02*
X161739104Y-108773980D01*
X161453390Y-109773980D02*
X161453390Y-108773980D01*
X159664495Y-103690800D02*
X159569257Y-103643180D01*
X159426400Y-103643180D01*
X159283542Y-103690800D01*
X159188304Y-103786038D01*
X159140685Y-103881276D01*
X159093066Y-104071752D01*
X159093066Y-104214609D01*
X159140685Y-104405085D01*
X159188304Y-104500323D01*
X159283542Y-104595561D01*
X159426400Y-104643180D01*
X159521638Y-104643180D01*
X159664495Y-104595561D01*
X159712114Y-104547942D01*
X159712114Y-104214609D01*
X159521638Y-104214609D01*
X160140685Y-104643180D02*
X160140685Y-103643180D01*
X160712114Y-104643180D01*
X160712114Y-103643180D01*
X161188304Y-104643180D02*
X161188304Y-103643180D01*
X161426400Y-103643180D01*
X161569257Y-103690800D01*
X161664495Y-103786038D01*
X161712114Y-103881276D01*
X161759733Y-104071752D01*
X161759733Y-104214609D01*
X161712114Y-104405085D01*
X161664495Y-104500323D01*
X161569257Y-104595561D01*
X161426400Y-104643180D01*
X161188304Y-104643180D01*
X159569257Y-91039761D02*
X159712114Y-91087380D01*
X159950209Y-91087380D01*
X160045447Y-91039761D01*
X160093066Y-90992142D01*
X160140685Y-90896904D01*
X160140685Y-90801666D01*
X160093066Y-90706428D01*
X160045447Y-90658809D01*
X159950209Y-90611190D01*
X159759733Y-90563571D01*
X159664495Y-90515952D01*
X159616876Y-90468333D01*
X159569257Y-90373095D01*
X159569257Y-90277857D01*
X159616876Y-90182619D01*
X159664495Y-90135000D01*
X159759733Y-90087380D01*
X159997828Y-90087380D01*
X160140685Y-90135000D01*
X160474019Y-90087380D02*
X160712114Y-91087380D01*
X160902590Y-90373095D01*
X161093066Y-91087380D01*
X161331161Y-90087380D01*
X159402590Y-92697380D02*
X159402590Y-91697380D01*
X159640685Y-91697380D01*
X159783542Y-91745000D01*
X159878780Y-91840238D01*
X159926400Y-91935476D01*
X159974019Y-92125952D01*
X159974019Y-92268809D01*
X159926400Y-92459285D01*
X159878780Y-92554523D01*
X159783542Y-92649761D01*
X159640685Y-92697380D01*
X159402590Y-92697380D01*
X160402590Y-92697380D02*
X160402590Y-91697380D01*
X161069257Y-91697380D02*
X161259733Y-91697380D01*
X161354971Y-91745000D01*
X161450209Y-91840238D01*
X161497828Y-92030714D01*
X161497828Y-92364047D01*
X161450209Y-92554523D01*
X161354971Y-92649761D01*
X161259733Y-92697380D01*
X161069257Y-92697380D01*
X160974019Y-92649761D01*
X160878780Y-92554523D01*
X160831161Y-92364047D01*
X160831161Y-92030714D01*
X160878780Y-91840238D01*
X160974019Y-91745000D01*
X161069257Y-91697380D01*
D10*
X126265857Y-93079285D02*
X126194428Y-93293571D01*
X126194428Y-93650714D01*
X126265857Y-93793571D01*
X126337285Y-93865000D01*
X126480142Y-93936428D01*
X126623000Y-93936428D01*
X126765857Y-93865000D01*
X126837285Y-93793571D01*
X126908714Y-93650714D01*
X126980142Y-93365000D01*
X127051571Y-93222142D01*
X127123000Y-93150714D01*
X127265857Y-93079285D01*
X127408714Y-93079285D01*
X127551571Y-93150714D01*
X127623000Y-93222142D01*
X127694428Y-93365000D01*
X127694428Y-93722142D01*
X127623000Y-93936428D01*
X126194428Y-94579285D02*
X127694428Y-94579285D01*
X127694428Y-94936428D01*
X127623000Y-95150714D01*
X127480142Y-95293571D01*
X127337285Y-95365000D01*
X127051571Y-95436428D01*
X126837285Y-95436428D01*
X126551571Y-95365000D01*
X126408714Y-95293571D01*
X126265857Y-95150714D01*
X126194428Y-94936428D01*
X126194428Y-94579285D01*
X126194428Y-96079285D02*
X127694428Y-96079285D01*
X128805857Y-103001285D02*
X128734428Y-103215571D01*
X128734428Y-103572714D01*
X128805857Y-103715571D01*
X128877285Y-103787000D01*
X129020142Y-103858428D01*
X129163000Y-103858428D01*
X129305857Y-103787000D01*
X129377285Y-103715571D01*
X129448714Y-103572714D01*
X129520142Y-103287000D01*
X129591571Y-103144142D01*
X129663000Y-103072714D01*
X129805857Y-103001285D01*
X129948714Y-103001285D01*
X130091571Y-103072714D01*
X130163000Y-103144142D01*
X130234428Y-103287000D01*
X130234428Y-103644142D01*
X130163000Y-103858428D01*
X128877285Y-105358428D02*
X128805857Y-105287000D01*
X128734428Y-105072714D01*
X128734428Y-104929857D01*
X128805857Y-104715571D01*
X128948714Y-104572714D01*
X129091571Y-104501285D01*
X129377285Y-104429857D01*
X129591571Y-104429857D01*
X129877285Y-104501285D01*
X130020142Y-104572714D01*
X130163000Y-104715571D01*
X130234428Y-104929857D01*
X130234428Y-105072714D01*
X130163000Y-105287000D01*
X130091571Y-105358428D01*
X128734428Y-106715571D02*
X128734428Y-106001285D01*
X130234428Y-106001285D01*
X128734428Y-107215571D02*
X130234428Y-107215571D01*
X128734428Y-108072714D02*
X129591571Y-107429857D01*
X130234428Y-108072714D02*
X129377285Y-107215571D01*
X81009228Y-109880542D02*
X81009228Y-110737685D01*
X79509228Y-110309114D02*
X81009228Y-110309114D01*
X81009228Y-111094828D02*
X79509228Y-112094828D01*
X81009228Y-112094828D02*
X79509228Y-111094828D01*
X129004285Y-94746000D02*
X128932857Y-94674571D01*
X128861428Y-94460285D01*
X128861428Y-94317428D01*
X128932857Y-94103142D01*
X129075714Y-93960285D01*
X129218571Y-93888857D01*
X129504285Y-93817428D01*
X129718571Y-93817428D01*
X130004285Y-93888857D01*
X130147142Y-93960285D01*
X130290000Y-94103142D01*
X130361428Y-94317428D01*
X130361428Y-94460285D01*
X130290000Y-94674571D01*
X130218571Y-94746000D01*
X128932857Y-95317428D02*
X128861428Y-95531714D01*
X128861428Y-95888857D01*
X128932857Y-96031714D01*
X129004285Y-96103142D01*
X129147142Y-96174571D01*
X129290000Y-96174571D01*
X129432857Y-96103142D01*
X129504285Y-96031714D01*
X129575714Y-95888857D01*
X129647142Y-95603142D01*
X129718571Y-95460285D01*
X129790000Y-95388857D01*
X129932857Y-95317428D01*
X130075714Y-95317428D01*
X130218571Y-95388857D01*
X130290000Y-95460285D01*
X130361428Y-95603142D01*
X130361428Y-95960285D01*
X130290000Y-96174571D01*
D11*
X209400000Y-99782380D02*
X210019047Y-99782380D01*
X209685714Y-100163333D01*
X209828571Y-100163333D01*
X209923809Y-100210952D01*
X209971428Y-100258571D01*
X210019047Y-100353809D01*
X210019047Y-100591904D01*
X209971428Y-100687142D01*
X209923809Y-100734761D01*
X209828571Y-100782380D01*
X209542857Y-100782380D01*
X209447619Y-100734761D01*
X209400000Y-100687142D01*
X210447619Y-100782380D02*
X210447619Y-99782380D01*
X210685714Y-99782380D01*
X210828571Y-99830000D01*
X210923809Y-99925238D01*
X210971428Y-100020476D01*
X211019047Y-100210952D01*
X211019047Y-100353809D01*
X210971428Y-100544285D01*
X210923809Y-100639523D01*
X210828571Y-100734761D01*
X210685714Y-100782380D01*
X210447619Y-100782380D01*
X212161904Y-100496666D02*
X212638095Y-100496666D01*
X212066666Y-100782380D02*
X212400000Y-99782380D01*
X212733333Y-100782380D01*
X213495238Y-100734761D02*
X213400000Y-100782380D01*
X213209523Y-100782380D01*
X213114285Y-100734761D01*
X213066666Y-100687142D01*
X213019047Y-100591904D01*
X213019047Y-100306190D01*
X213066666Y-100210952D01*
X213114285Y-100163333D01*
X213209523Y-100115714D01*
X213400000Y-100115714D01*
X213495238Y-100163333D01*
X214352380Y-100734761D02*
X214257142Y-100782380D01*
X214066666Y-100782380D01*
X213971428Y-100734761D01*
X213923809Y-100687142D01*
X213876190Y-100591904D01*
X213876190Y-100306190D01*
X213923809Y-100210952D01*
X213971428Y-100163333D01*
X214066666Y-100115714D01*
X214257142Y-100115714D01*
X214352380Y-100163333D01*
X215161904Y-100734761D02*
X215066666Y-100782380D01*
X214876190Y-100782380D01*
X214780952Y-100734761D01*
X214733333Y-100639523D01*
X214733333Y-100258571D01*
X214780952Y-100163333D01*
X214876190Y-100115714D01*
X215066666Y-100115714D01*
X215161904Y-100163333D01*
X215209523Y-100258571D01*
X215209523Y-100353809D01*
X214733333Y-100449047D01*
X215780952Y-100782380D02*
X215685714Y-100734761D01*
X215638095Y-100639523D01*
X215638095Y-99782380D01*
X216542857Y-100734761D02*
X216447619Y-100782380D01*
X216257142Y-100782380D01*
X216161904Y-100734761D01*
X216114285Y-100639523D01*
X216114285Y-100258571D01*
X216161904Y-100163333D01*
X216257142Y-100115714D01*
X216447619Y-100115714D01*
X216542857Y-100163333D01*
X216590476Y-100258571D01*
X216590476Y-100353809D01*
X216114285Y-100449047D01*
X217019047Y-100782380D02*
X217019047Y-100115714D01*
X217019047Y-100306190D02*
X217066666Y-100210952D01*
X217114285Y-100163333D01*
X217209523Y-100115714D01*
X217304761Y-100115714D01*
X217780952Y-100782380D02*
X217685714Y-100734761D01*
X217638095Y-100687142D01*
X217590476Y-100591904D01*
X217590476Y-100306190D01*
X217638095Y-100210952D01*
X217685714Y-100163333D01*
X217780952Y-100115714D01*
X217923809Y-100115714D01*
X218019047Y-100163333D01*
X218066666Y-100210952D01*
X218114285Y-100306190D01*
X218114285Y-100591904D01*
X218066666Y-100687142D01*
X218019047Y-100734761D01*
X217923809Y-100782380D01*
X217780952Y-100782380D01*
X218542857Y-100782380D02*
X218542857Y-100115714D01*
X218542857Y-100210952D02*
X218590476Y-100163333D01*
X218685714Y-100115714D01*
X218828571Y-100115714D01*
X218923809Y-100163333D01*
X218971428Y-100258571D01*
X218971428Y-100782380D01*
X218971428Y-100258571D02*
X219019047Y-100163333D01*
X219114285Y-100115714D01*
X219257142Y-100115714D01*
X219352380Y-100163333D01*
X219400000Y-100258571D01*
X219400000Y-100782380D01*
X220257142Y-100734761D02*
X220161904Y-100782380D01*
X219971428Y-100782380D01*
X219876190Y-100734761D01*
X219828571Y-100639523D01*
X219828571Y-100258571D01*
X219876190Y-100163333D01*
X219971428Y-100115714D01*
X220161904Y-100115714D01*
X220257142Y-100163333D01*
X220304761Y-100258571D01*
X220304761Y-100353809D01*
X219828571Y-100449047D01*
X220590476Y-100115714D02*
X220971428Y-100115714D01*
X220733333Y-99782380D02*
X220733333Y-100639523D01*
X220780952Y-100734761D01*
X220876190Y-100782380D01*
X220971428Y-100782380D01*
X221685714Y-100734761D02*
X221590476Y-100782380D01*
X221400000Y-100782380D01*
X221304761Y-100734761D01*
X221257142Y-100639523D01*
X221257142Y-100258571D01*
X221304761Y-100163333D01*
X221400000Y-100115714D01*
X221590476Y-100115714D01*
X221685714Y-100163333D01*
X221733333Y-100258571D01*
X221733333Y-100353809D01*
X221257142Y-100449047D01*
X222161904Y-100782380D02*
X222161904Y-100115714D01*
X222161904Y-100306190D02*
X222209523Y-100210952D01*
X222257142Y-100163333D01*
X222352380Y-100115714D01*
X222447619Y-100115714D01*
D10*
X127623000Y-103759142D02*
X127694428Y-103616285D01*
X127694428Y-103402000D01*
X127623000Y-103187714D01*
X127480142Y-103044857D01*
X127337285Y-102973428D01*
X127051571Y-102902000D01*
X126837285Y-102902000D01*
X126551571Y-102973428D01*
X126408714Y-103044857D01*
X126265857Y-103187714D01*
X126194428Y-103402000D01*
X126194428Y-103544857D01*
X126265857Y-103759142D01*
X126337285Y-103830571D01*
X126837285Y-103830571D01*
X126837285Y-103544857D01*
X126194428Y-104473428D02*
X127694428Y-104473428D01*
X126194428Y-105330571D01*
X127694428Y-105330571D01*
X126194428Y-106044857D02*
X127694428Y-106044857D01*
X127694428Y-106402000D01*
X127623000Y-106616285D01*
X127480142Y-106759142D01*
X127337285Y-106830571D01*
X127051571Y-106902000D01*
X126837285Y-106902000D01*
X126551571Y-106830571D01*
X126408714Y-106759142D01*
X126265857Y-106616285D01*
X126194428Y-106402000D01*
X126194428Y-106044857D01*
X74378428Y-110621000D02*
X75092714Y-110121000D01*
X74378428Y-109763857D02*
X75878428Y-109763857D01*
X75878428Y-110335285D01*
X75807000Y-110478142D01*
X75735571Y-110549571D01*
X75592714Y-110621000D01*
X75378428Y-110621000D01*
X75235571Y-110549571D01*
X75164142Y-110478142D01*
X75092714Y-110335285D01*
X75092714Y-109763857D01*
X75878428Y-111121000D02*
X74378428Y-112121000D01*
X75878428Y-112121000D02*
X74378428Y-111121000D01*
X131401428Y-92035571D02*
X132901428Y-92035571D01*
X131401428Y-92749857D02*
X132901428Y-92749857D01*
X131401428Y-93607000D01*
X132901428Y-93607000D01*
X132901428Y-94107000D02*
X132901428Y-94964142D01*
X131401428Y-94535571D02*
X132901428Y-94535571D01*
X131401428Y-96249857D02*
X131401428Y-95392714D01*
X131401428Y-95821285D02*
X132901428Y-95821285D01*
X132687142Y-95678428D01*
X132544285Y-95535571D01*
X132472857Y-95392714D01*
D11*
X111240133Y-106057266D02*
X111716323Y-106057266D01*
X111144895Y-106342980D02*
X111478228Y-105342980D01*
X111811561Y-106342980D01*
X112144895Y-106342980D02*
X112144895Y-105342980D01*
X113382990Y-106342980D02*
X113382990Y-105342980D01*
X113716323Y-106057266D01*
X114049657Y-105342980D01*
X114049657Y-106342980D01*
X115002038Y-106342980D02*
X114525847Y-106342980D01*
X114525847Y-105342980D01*
X116097276Y-106342980D02*
X116097276Y-105342980D01*
X116430609Y-106057266D01*
X116763942Y-105342980D01*
X116763942Y-106342980D01*
X117668704Y-106342980D02*
X117668704Y-105819171D01*
X117621085Y-105723933D01*
X117525847Y-105676314D01*
X117335371Y-105676314D01*
X117240133Y-105723933D01*
X117668704Y-106295361D02*
X117573466Y-106342980D01*
X117335371Y-106342980D01*
X117240133Y-106295361D01*
X117192514Y-106200123D01*
X117192514Y-106104885D01*
X117240133Y-106009647D01*
X117335371Y-105962028D01*
X117573466Y-105962028D01*
X117668704Y-105914409D01*
X118573466Y-105676314D02*
X118573466Y-106485838D01*
X118525847Y-106581076D01*
X118478228Y-106628695D01*
X118382990Y-106676314D01*
X118240133Y-106676314D01*
X118144895Y-106628695D01*
X118573466Y-106295361D02*
X118478228Y-106342980D01*
X118287752Y-106342980D01*
X118192514Y-106295361D01*
X118144895Y-106247742D01*
X118097276Y-106152504D01*
X118097276Y-105866790D01*
X118144895Y-105771552D01*
X118192514Y-105723933D01*
X118287752Y-105676314D01*
X118478228Y-105676314D01*
X118573466Y-105723933D01*
X119049657Y-106342980D02*
X119049657Y-105676314D01*
X119049657Y-105342980D02*
X119002038Y-105390600D01*
X119049657Y-105438219D01*
X119097276Y-105390600D01*
X119049657Y-105342980D01*
X119049657Y-105438219D01*
X119954419Y-106295361D02*
X119859180Y-106342980D01*
X119668704Y-106342980D01*
X119573466Y-106295361D01*
X119525847Y-106247742D01*
X119478228Y-106152504D01*
X119478228Y-105866790D01*
X119525847Y-105771552D01*
X119573466Y-105723933D01*
X119668704Y-105676314D01*
X119859180Y-105676314D01*
X119954419Y-105723933D01*
X121049657Y-105342980D02*
X121287752Y-106342980D01*
X121478228Y-105628695D01*
X121668704Y-106342980D01*
X121906800Y-105342980D01*
X122716323Y-106342980D02*
X122716323Y-105819171D01*
X122668704Y-105723933D01*
X122573466Y-105676314D01*
X122382990Y-105676314D01*
X122287752Y-105723933D01*
X122716323Y-106295361D02*
X122621085Y-106342980D01*
X122382990Y-106342980D01*
X122287752Y-106295361D01*
X122240133Y-106200123D01*
X122240133Y-106104885D01*
X122287752Y-106009647D01*
X122382990Y-105962028D01*
X122621085Y-105962028D01*
X122716323Y-105914409D01*
X123192514Y-105676314D02*
X123192514Y-106342980D01*
X123192514Y-105771552D02*
X123240133Y-105723933D01*
X123335371Y-105676314D01*
X123478228Y-105676314D01*
X123573466Y-105723933D01*
X123621085Y-105819171D01*
X123621085Y-106342980D01*
X124525847Y-106342980D02*
X124525847Y-105342980D01*
X124525847Y-106295361D02*
X124430609Y-106342980D01*
X124240133Y-106342980D01*
X124144895Y-106295361D01*
X124097276Y-106247742D01*
X124049657Y-106152504D01*
X124049657Y-105866790D01*
X124097276Y-105771552D01*
X124144895Y-105723933D01*
X124240133Y-105676314D01*
X124430609Y-105676314D01*
X124525847Y-105723933D01*
X113882990Y-106952980D02*
X114502038Y-106952980D01*
X114168704Y-107333933D01*
X114311561Y-107333933D01*
X114406800Y-107381552D01*
X114454419Y-107429171D01*
X114502038Y-107524409D01*
X114502038Y-107762504D01*
X114454419Y-107857742D01*
X114406800Y-107905361D01*
X114311561Y-107952980D01*
X114025847Y-107952980D01*
X113930609Y-107905361D01*
X113882990Y-107857742D01*
X114930609Y-107952980D02*
X114930609Y-106952980D01*
X115168704Y-106952980D01*
X115311561Y-107000600D01*
X115406800Y-107095838D01*
X115454419Y-107191076D01*
X115502038Y-107381552D01*
X115502038Y-107524409D01*
X115454419Y-107714885D01*
X115406800Y-107810123D01*
X115311561Y-107905361D01*
X115168704Y-107952980D01*
X114930609Y-107952980D01*
X117216323Y-107000600D02*
X117121085Y-106952980D01*
X116978228Y-106952980D01*
X116835371Y-107000600D01*
X116740133Y-107095838D01*
X116692514Y-107191076D01*
X116644895Y-107381552D01*
X116644895Y-107524409D01*
X116692514Y-107714885D01*
X116740133Y-107810123D01*
X116835371Y-107905361D01*
X116978228Y-107952980D01*
X117073466Y-107952980D01*
X117216323Y-107905361D01*
X117263942Y-107857742D01*
X117263942Y-107524409D01*
X117073466Y-107524409D01*
X118073466Y-107905361D02*
X117978228Y-107952980D01*
X117787752Y-107952980D01*
X117692514Y-107905361D01*
X117644895Y-107810123D01*
X117644895Y-107429171D01*
X117692514Y-107333933D01*
X117787752Y-107286314D01*
X117978228Y-107286314D01*
X118073466Y-107333933D01*
X118121085Y-107429171D01*
X118121085Y-107524409D01*
X117644895Y-107619647D01*
X118502038Y-107905361D02*
X118597276Y-107952980D01*
X118787752Y-107952980D01*
X118882990Y-107905361D01*
X118930609Y-107810123D01*
X118930609Y-107762504D01*
X118882990Y-107667266D01*
X118787752Y-107619647D01*
X118644895Y-107619647D01*
X118549657Y-107572028D01*
X118502038Y-107476790D01*
X118502038Y-107429171D01*
X118549657Y-107333933D01*
X118644895Y-107286314D01*
X118787752Y-107286314D01*
X118882990Y-107333933D01*
X119216323Y-107286314D02*
X119597276Y-107286314D01*
X119359180Y-106952980D02*
X119359180Y-107810123D01*
X119406800Y-107905361D01*
X119502038Y-107952980D01*
X119597276Y-107952980D01*
X120359180Y-107286314D02*
X120359180Y-107952980D01*
X119930609Y-107286314D02*
X119930609Y-107810123D01*
X119978228Y-107905361D01*
X120073466Y-107952980D01*
X120216323Y-107952980D01*
X120311561Y-107905361D01*
X120359180Y-107857742D01*
X120835371Y-107952980D02*
X120835371Y-107286314D01*
X120835371Y-107476790D02*
X120882990Y-107381552D01*
X120930609Y-107333933D01*
X121025847Y-107286314D01*
X121121085Y-107286314D01*
X121835371Y-107905361D02*
X121740133Y-107952980D01*
X121549657Y-107952980D01*
X121454419Y-107905361D01*
X121406800Y-107810123D01*
X121406800Y-107429171D01*
X121454419Y-107333933D01*
X121549657Y-107286314D01*
X121740133Y-107286314D01*
X121835371Y-107333933D01*
X121882990Y-107429171D01*
X121882990Y-107524409D01*
X121406800Y-107619647D01*
X113192514Y-109515361D02*
X113335371Y-109562980D01*
X113573466Y-109562980D01*
X113668704Y-109515361D01*
X113716323Y-109467742D01*
X113763942Y-109372504D01*
X113763942Y-109277266D01*
X113716323Y-109182028D01*
X113668704Y-109134409D01*
X113573466Y-109086790D01*
X113382990Y-109039171D01*
X113287752Y-108991552D01*
X113240133Y-108943933D01*
X113192514Y-108848695D01*
X113192514Y-108753457D01*
X113240133Y-108658219D01*
X113287752Y-108610600D01*
X113382990Y-108562980D01*
X113621085Y-108562980D01*
X113763942Y-108610600D01*
X114144895Y-109277266D02*
X114621085Y-109277266D01*
X114049657Y-109562980D02*
X114382990Y-108562980D01*
X114716323Y-109562980D01*
X115049657Y-109562980D02*
X115049657Y-108562980D01*
X115382990Y-109277266D01*
X115716323Y-108562980D01*
X115716323Y-109562980D01*
X116192514Y-109562980D02*
X116192514Y-108562980D01*
X116430609Y-108562980D01*
X116573466Y-108610600D01*
X116668704Y-108705838D01*
X116716323Y-108801076D01*
X116763942Y-108991552D01*
X116763942Y-109134409D01*
X116716323Y-109324885D01*
X116668704Y-109420123D01*
X116573466Y-109515361D01*
X116430609Y-109562980D01*
X116192514Y-109562980D01*
X117144895Y-108658219D02*
X117192514Y-108610600D01*
X117287752Y-108562980D01*
X117525847Y-108562980D01*
X117621085Y-108610600D01*
X117668704Y-108658219D01*
X117716323Y-108753457D01*
X117716323Y-108848695D01*
X117668704Y-108991552D01*
X117097276Y-109562980D01*
X117716323Y-109562980D01*
X118668704Y-109562980D02*
X118097276Y-109562980D01*
X118382990Y-109562980D02*
X118382990Y-108562980D01*
X118287752Y-108705838D01*
X118192514Y-108801076D01*
X118097276Y-108848695D01*
X119859180Y-109562980D02*
X119859180Y-108562980D01*
X120192514Y-109277266D01*
X120525847Y-108562980D01*
X120525847Y-109562980D01*
X121573466Y-109467742D02*
X121525847Y-109515361D01*
X121382990Y-109562980D01*
X121287752Y-109562980D01*
X121144895Y-109515361D01*
X121049657Y-109420123D01*
X121002038Y-109324885D01*
X120954419Y-109134409D01*
X120954419Y-108991552D01*
X121002038Y-108801076D01*
X121049657Y-108705838D01*
X121144895Y-108610600D01*
X121287752Y-108562980D01*
X121382990Y-108562980D01*
X121525847Y-108610600D01*
X121573466Y-108658219D01*
X122002038Y-108562980D02*
X122002038Y-109372504D01*
X122049657Y-109467742D01*
X122097276Y-109515361D01*
X122192514Y-109562980D01*
X122382990Y-109562980D01*
X122478228Y-109515361D01*
X122525847Y-109467742D01*
X122573466Y-109372504D01*
X122573466Y-108562980D01*
X111002038Y-111172980D02*
X111002038Y-110172980D01*
X112049657Y-111077742D02*
X112002038Y-111125361D01*
X111859180Y-111172980D01*
X111763942Y-111172980D01*
X111621085Y-111125361D01*
X111525847Y-111030123D01*
X111478228Y-110934885D01*
X111430609Y-110744409D01*
X111430609Y-110601552D01*
X111478228Y-110411076D01*
X111525847Y-110315838D01*
X111621085Y-110220600D01*
X111763942Y-110172980D01*
X111859180Y-110172980D01*
X112002038Y-110220600D01*
X112049657Y-110268219D01*
X112478228Y-111172980D02*
X112478228Y-110172980D01*
X112811561Y-110887266D01*
X113144895Y-110172980D01*
X113144895Y-111172980D01*
X113621085Y-110792028D02*
X114382990Y-110792028D01*
X115287752Y-110506314D02*
X115287752Y-111172980D01*
X115049657Y-110125361D02*
X114811561Y-110839647D01*
X115430609Y-110839647D01*
X115763942Y-110268219D02*
X115811561Y-110220600D01*
X115906800Y-110172980D01*
X116144895Y-110172980D01*
X116240133Y-110220600D01*
X116287752Y-110268219D01*
X116335371Y-110363457D01*
X116335371Y-110458695D01*
X116287752Y-110601552D01*
X115716323Y-111172980D01*
X116335371Y-111172980D01*
X117192514Y-110172980D02*
X117002038Y-110172980D01*
X116906800Y-110220600D01*
X116859180Y-110268219D01*
X116763942Y-110411076D01*
X116716323Y-110601552D01*
X116716323Y-110982504D01*
X116763942Y-111077742D01*
X116811561Y-111125361D01*
X116906800Y-111172980D01*
X117097276Y-111172980D01*
X117192514Y-111125361D01*
X117240133Y-111077742D01*
X117287752Y-110982504D01*
X117287752Y-110744409D01*
X117240133Y-110649171D01*
X117192514Y-110601552D01*
X117097276Y-110553933D01*
X116906800Y-110553933D01*
X116811561Y-110601552D01*
X116763942Y-110649171D01*
X116716323Y-110744409D01*
X117859180Y-110601552D02*
X117763942Y-110553933D01*
X117716323Y-110506314D01*
X117668704Y-110411076D01*
X117668704Y-110363457D01*
X117716323Y-110268219D01*
X117763942Y-110220600D01*
X117859180Y-110172980D01*
X118049657Y-110172980D01*
X118144895Y-110220600D01*
X118192514Y-110268219D01*
X118240133Y-110363457D01*
X118240133Y-110411076D01*
X118192514Y-110506314D01*
X118144895Y-110553933D01*
X118049657Y-110601552D01*
X117859180Y-110601552D01*
X117763942Y-110649171D01*
X117716323Y-110696790D01*
X117668704Y-110792028D01*
X117668704Y-110982504D01*
X117716323Y-111077742D01*
X117763942Y-111125361D01*
X117859180Y-111172980D01*
X118049657Y-111172980D01*
X118144895Y-111125361D01*
X118192514Y-111077742D01*
X118240133Y-110982504D01*
X118240133Y-110792028D01*
X118192514Y-110696790D01*
X118144895Y-110649171D01*
X118049657Y-110601552D01*
X118811561Y-110601552D02*
X118716323Y-110553933D01*
X118668704Y-110506314D01*
X118621085Y-110411076D01*
X118621085Y-110363457D01*
X118668704Y-110268219D01*
X118716323Y-110220600D01*
X118811561Y-110172980D01*
X119002038Y-110172980D01*
X119097276Y-110220600D01*
X119144895Y-110268219D01*
X119192514Y-110363457D01*
X119192514Y-110411076D01*
X119144895Y-110506314D01*
X119097276Y-110553933D01*
X119002038Y-110601552D01*
X118811561Y-110601552D01*
X118716323Y-110649171D01*
X118668704Y-110696790D01*
X118621085Y-110792028D01*
X118621085Y-110982504D01*
X118668704Y-111077742D01*
X118716323Y-111125361D01*
X118811561Y-111172980D01*
X119002038Y-111172980D01*
X119097276Y-111125361D01*
X119144895Y-111077742D01*
X119192514Y-110982504D01*
X119192514Y-110792028D01*
X119144895Y-110696790D01*
X119097276Y-110649171D01*
X119002038Y-110601552D01*
X119621085Y-110792028D02*
X120382990Y-110792028D01*
X120859180Y-111172980D02*
X120859180Y-110172980D01*
X121240133Y-110172980D01*
X121335371Y-110220600D01*
X121382990Y-110268219D01*
X121430609Y-110363457D01*
X121430609Y-110506314D01*
X121382990Y-110601552D01*
X121335371Y-110649171D01*
X121240133Y-110696790D01*
X120859180Y-110696790D01*
X122621085Y-111172980D02*
X122621085Y-110172980D01*
X123097276Y-111172980D02*
X123097276Y-110172980D01*
X123430609Y-110887266D01*
X123763942Y-110172980D01*
X123763942Y-111172980D01*
X124240133Y-110172980D02*
X124240133Y-110982504D01*
X124287752Y-111077742D01*
X124335371Y-111125361D01*
X124430609Y-111172980D01*
X124621085Y-111172980D01*
X124716323Y-111125361D01*
X124763942Y-111077742D01*
X124811561Y-110982504D01*
X124811561Y-110172980D01*
%TO.C,C6*%
X261580333Y-101703142D02*
X261532714Y-101750761D01*
X261389857Y-101798380D01*
X261294619Y-101798380D01*
X261151761Y-101750761D01*
X261056523Y-101655523D01*
X261008904Y-101560285D01*
X260961285Y-101369809D01*
X260961285Y-101226952D01*
X261008904Y-101036476D01*
X261056523Y-100941238D01*
X261151761Y-100846000D01*
X261294619Y-100798380D01*
X261389857Y-100798380D01*
X261532714Y-100846000D01*
X261580333Y-100893619D01*
X262437476Y-100798380D02*
X262247000Y-100798380D01*
X262151761Y-100846000D01*
X262104142Y-100893619D01*
X262008904Y-101036476D01*
X261961285Y-101226952D01*
X261961285Y-101607904D01*
X262008904Y-101703142D01*
X262056523Y-101750761D01*
X262151761Y-101798380D01*
X262342238Y-101798380D01*
X262437476Y-101750761D01*
X262485095Y-101703142D01*
X262532714Y-101607904D01*
X262532714Y-101369809D01*
X262485095Y-101274571D01*
X262437476Y-101226952D01*
X262342238Y-101179333D01*
X262151761Y-101179333D01*
X262056523Y-101226952D01*
X262008904Y-101274571D01*
X261961285Y-101369809D01*
%TO.C,R4*%
X98232933Y-104389180D02*
X97899600Y-103912990D01*
X97661504Y-104389180D02*
X97661504Y-103389180D01*
X98042457Y-103389180D01*
X98137695Y-103436800D01*
X98185314Y-103484419D01*
X98232933Y-103579657D01*
X98232933Y-103722514D01*
X98185314Y-103817752D01*
X98137695Y-103865371D01*
X98042457Y-103912990D01*
X97661504Y-103912990D01*
X99090076Y-103722514D02*
X99090076Y-104389180D01*
X98851980Y-103341561D02*
X98613885Y-104055847D01*
X99232933Y-104055847D01*
%TO.C,C2*%
X88123733Y-89663542D02*
X88076114Y-89711161D01*
X87933257Y-89758780D01*
X87838019Y-89758780D01*
X87695161Y-89711161D01*
X87599923Y-89615923D01*
X87552304Y-89520685D01*
X87504685Y-89330209D01*
X87504685Y-89187352D01*
X87552304Y-88996876D01*
X87599923Y-88901638D01*
X87695161Y-88806400D01*
X87838019Y-88758780D01*
X87933257Y-88758780D01*
X88076114Y-88806400D01*
X88123733Y-88854019D01*
X88504685Y-88854019D02*
X88552304Y-88806400D01*
X88647542Y-88758780D01*
X88885638Y-88758780D01*
X88980876Y-88806400D01*
X89028495Y-88854019D01*
X89076114Y-88949257D01*
X89076114Y-89044495D01*
X89028495Y-89187352D01*
X88457066Y-89758780D01*
X89076114Y-89758780D01*
%TO.C,J4*%
X82046380Y-107851533D02*
X82760666Y-107851533D01*
X82903523Y-107899152D01*
X82998761Y-107994390D01*
X83046380Y-108137247D01*
X83046380Y-108232485D01*
X82379714Y-106946771D02*
X83046380Y-106946771D01*
X81998761Y-107184866D02*
X82713047Y-107422961D01*
X82713047Y-106803914D01*
%TO.C,R1*%
X96150133Y-90622380D02*
X95816800Y-90146190D01*
X95578704Y-90622380D02*
X95578704Y-89622380D01*
X95959657Y-89622380D01*
X96054895Y-89670000D01*
X96102514Y-89717619D01*
X96150133Y-89812857D01*
X96150133Y-89955714D01*
X96102514Y-90050952D01*
X96054895Y-90098571D01*
X95959657Y-90146190D01*
X95578704Y-90146190D01*
X97102514Y-90622380D02*
X96531085Y-90622380D01*
X96816800Y-90622380D02*
X96816800Y-89622380D01*
X96721561Y-89765238D01*
X96626323Y-89860476D01*
X96531085Y-89908095D01*
%TO.C,J3*%
X124122380Y-100028333D02*
X124836666Y-100028333D01*
X124979523Y-100075952D01*
X125074761Y-100171190D01*
X125122380Y-100314047D01*
X125122380Y-100409285D01*
X124122380Y-99647380D02*
X124122380Y-99028333D01*
X124503333Y-99361666D01*
X124503333Y-99218809D01*
X124550952Y-99123571D01*
X124598571Y-99075952D01*
X124693809Y-99028333D01*
X124931904Y-99028333D01*
X125027142Y-99075952D01*
X125074761Y-99123571D01*
X125122380Y-99218809D01*
X125122380Y-99504523D01*
X125074761Y-99599761D01*
X125027142Y-99647380D01*
%TO.C,U1*%
X68763095Y-89957380D02*
X68763095Y-90766904D01*
X68810714Y-90862142D01*
X68858333Y-90909761D01*
X68953571Y-90957380D01*
X69144047Y-90957380D01*
X69239285Y-90909761D01*
X69286904Y-90862142D01*
X69334523Y-90766904D01*
X69334523Y-89957380D01*
X70334523Y-90957380D02*
X69763095Y-90957380D01*
X70048809Y-90957380D02*
X70048809Y-89957380D01*
X69953571Y-90100238D01*
X69858333Y-90195476D01*
X69763095Y-90243095D01*
%TO.C,R3*%
X93864133Y-106675180D02*
X93530800Y-106198990D01*
X93292704Y-106675180D02*
X93292704Y-105675180D01*
X93673657Y-105675180D01*
X93768895Y-105722800D01*
X93816514Y-105770419D01*
X93864133Y-105865657D01*
X93864133Y-106008514D01*
X93816514Y-106103752D01*
X93768895Y-106151371D01*
X93673657Y-106198990D01*
X93292704Y-106198990D01*
X94197466Y-105675180D02*
X94816514Y-105675180D01*
X94483180Y-106056133D01*
X94626038Y-106056133D01*
X94721276Y-106103752D01*
X94768895Y-106151371D01*
X94816514Y-106246609D01*
X94816514Y-106484704D01*
X94768895Y-106579942D01*
X94721276Y-106627561D01*
X94626038Y-106675180D01*
X94340323Y-106675180D01*
X94245085Y-106627561D01*
X94197466Y-106579942D01*
%TO.C,R6*%
X97470933Y-102661980D02*
X97137600Y-102185790D01*
X96899504Y-102661980D02*
X96899504Y-101661980D01*
X97280457Y-101661980D01*
X97375695Y-101709600D01*
X97423314Y-101757219D01*
X97470933Y-101852457D01*
X97470933Y-101995314D01*
X97423314Y-102090552D01*
X97375695Y-102138171D01*
X97280457Y-102185790D01*
X96899504Y-102185790D01*
X98328076Y-101661980D02*
X98137600Y-101661980D01*
X98042361Y-101709600D01*
X97994742Y-101757219D01*
X97899504Y-101900076D01*
X97851885Y-102090552D01*
X97851885Y-102471504D01*
X97899504Y-102566742D01*
X97947123Y-102614361D01*
X98042361Y-102661980D01*
X98232838Y-102661980D01*
X98328076Y-102614361D01*
X98375695Y-102566742D01*
X98423314Y-102471504D01*
X98423314Y-102233409D01*
X98375695Y-102138171D01*
X98328076Y-102090552D01*
X98232838Y-102042933D01*
X98042361Y-102042933D01*
X97947123Y-102090552D01*
X97899504Y-102138171D01*
X97851885Y-102233409D01*
%TO.C,R8*%
X112973380Y-91479666D02*
X112497190Y-91813000D01*
X112973380Y-92051095D02*
X111973380Y-92051095D01*
X111973380Y-91670142D01*
X112021000Y-91574904D01*
X112068619Y-91527285D01*
X112163857Y-91479666D01*
X112306714Y-91479666D01*
X112401952Y-91527285D01*
X112449571Y-91574904D01*
X112497190Y-91670142D01*
X112497190Y-92051095D01*
X112401952Y-90908238D02*
X112354333Y-91003476D01*
X112306714Y-91051095D01*
X112211476Y-91098714D01*
X112163857Y-91098714D01*
X112068619Y-91051095D01*
X112021000Y-91003476D01*
X111973380Y-90908238D01*
X111973380Y-90717761D01*
X112021000Y-90622523D01*
X112068619Y-90574904D01*
X112163857Y-90527285D01*
X112211476Y-90527285D01*
X112306714Y-90574904D01*
X112354333Y-90622523D01*
X112401952Y-90717761D01*
X112401952Y-90908238D01*
X112449571Y-91003476D01*
X112497190Y-91051095D01*
X112592428Y-91098714D01*
X112782904Y-91098714D01*
X112878142Y-91051095D01*
X112925761Y-91003476D01*
X112973380Y-90908238D01*
X112973380Y-90717761D01*
X112925761Y-90622523D01*
X112878142Y-90574904D01*
X112782904Y-90527285D01*
X112592428Y-90527285D01*
X112497190Y-90574904D01*
X112449571Y-90622523D01*
X112401952Y-90717761D01*
%TO.C,Q2*%
X109404161Y-109666019D02*
X109308923Y-109618400D01*
X109213685Y-109523161D01*
X109070828Y-109380304D01*
X108975590Y-109332685D01*
X108880352Y-109332685D01*
X108927971Y-109570780D02*
X108832733Y-109523161D01*
X108737495Y-109427923D01*
X108689876Y-109237447D01*
X108689876Y-108904114D01*
X108737495Y-108713638D01*
X108832733Y-108618400D01*
X108927971Y-108570780D01*
X109118447Y-108570780D01*
X109213685Y-108618400D01*
X109308923Y-108713638D01*
X109356542Y-108904114D01*
X109356542Y-109237447D01*
X109308923Y-109427923D01*
X109213685Y-109523161D01*
X109118447Y-109570780D01*
X108927971Y-109570780D01*
X109737495Y-108666019D02*
X109785114Y-108618400D01*
X109880352Y-108570780D01*
X110118447Y-108570780D01*
X110213685Y-108618400D01*
X110261304Y-108666019D01*
X110308923Y-108761257D01*
X110308923Y-108856495D01*
X110261304Y-108999352D01*
X109689876Y-109570780D01*
X110308923Y-109570780D01*
%TO.C,J2*%
X157146666Y-111002380D02*
X157146666Y-111716666D01*
X157099047Y-111859523D01*
X157003809Y-111954761D01*
X156860952Y-112002380D01*
X156765714Y-112002380D01*
X157575238Y-111097619D02*
X157622857Y-111050000D01*
X157718095Y-111002380D01*
X157956190Y-111002380D01*
X158051428Y-111050000D01*
X158099047Y-111097619D01*
X158146666Y-111192857D01*
X158146666Y-111288095D01*
X158099047Y-111430952D01*
X157527619Y-112002380D01*
X158146666Y-112002380D01*
%TO.C,D1*%
X269365504Y-103881180D02*
X269365504Y-102881180D01*
X269603600Y-102881180D01*
X269746457Y-102928800D01*
X269841695Y-103024038D01*
X269889314Y-103119276D01*
X269936933Y-103309752D01*
X269936933Y-103452609D01*
X269889314Y-103643085D01*
X269841695Y-103738323D01*
X269746457Y-103833561D01*
X269603600Y-103881180D01*
X269365504Y-103881180D01*
X270889314Y-103881180D02*
X270317885Y-103881180D01*
X270603600Y-103881180D02*
X270603600Y-102881180D01*
X270508361Y-103024038D01*
X270413123Y-103119276D01*
X270317885Y-103166895D01*
X271180714Y-99182380D02*
X270609285Y-99182380D01*
X270895000Y-99182380D02*
X270895000Y-98182380D01*
X270799761Y-98325238D01*
X270704523Y-98420476D01*
X270609285Y-98468095D01*
%TO.C,J1*%
X73437380Y-100663333D02*
X74151666Y-100663333D01*
X74294523Y-100710952D01*
X74389761Y-100806190D01*
X74437380Y-100949047D01*
X74437380Y-101044285D01*
X74437380Y-99663333D02*
X74437380Y-100234761D01*
X74437380Y-99949047D02*
X73437380Y-99949047D01*
X73580238Y-100044285D01*
X73675476Y-100139523D01*
X73723095Y-100234761D01*
%TO.C,C9*%
X102195333Y-104700342D02*
X102147714Y-104747961D01*
X102004857Y-104795580D01*
X101909619Y-104795580D01*
X101766761Y-104747961D01*
X101671523Y-104652723D01*
X101623904Y-104557485D01*
X101576285Y-104367009D01*
X101576285Y-104224152D01*
X101623904Y-104033676D01*
X101671523Y-103938438D01*
X101766761Y-103843200D01*
X101909619Y-103795580D01*
X102004857Y-103795580D01*
X102147714Y-103843200D01*
X102195333Y-103890819D01*
X102671523Y-104795580D02*
X102862000Y-104795580D01*
X102957238Y-104747961D01*
X103004857Y-104700342D01*
X103100095Y-104557485D01*
X103147714Y-104367009D01*
X103147714Y-103986057D01*
X103100095Y-103890819D01*
X103052476Y-103843200D01*
X102957238Y-103795580D01*
X102766761Y-103795580D01*
X102671523Y-103843200D01*
X102623904Y-103890819D01*
X102576285Y-103986057D01*
X102576285Y-104224152D01*
X102623904Y-104319390D01*
X102671523Y-104367009D01*
X102766761Y-104414628D01*
X102957238Y-104414628D01*
X103052476Y-104367009D01*
X103100095Y-104319390D01*
X103147714Y-104224152D01*
%TO.C,U3*%
X89865295Y-101865180D02*
X89865295Y-102674704D01*
X89912914Y-102769942D01*
X89960533Y-102817561D01*
X90055771Y-102865180D01*
X90246247Y-102865180D01*
X90341485Y-102817561D01*
X90389104Y-102769942D01*
X90436723Y-102674704D01*
X90436723Y-101865180D01*
X90817676Y-101865180D02*
X91436723Y-101865180D01*
X91103390Y-102246133D01*
X91246247Y-102246133D01*
X91341485Y-102293752D01*
X91389104Y-102341371D01*
X91436723Y-102436609D01*
X91436723Y-102674704D01*
X91389104Y-102769942D01*
X91341485Y-102817561D01*
X91246247Y-102865180D01*
X90960533Y-102865180D01*
X90865295Y-102817561D01*
X90817676Y-102769942D01*
%TO.C,U2*%
X266801695Y-102830380D02*
X266801695Y-103639904D01*
X266849314Y-103735142D01*
X266896933Y-103782761D01*
X266992171Y-103830380D01*
X267182647Y-103830380D01*
X267277885Y-103782761D01*
X267325504Y-103735142D01*
X267373123Y-103639904D01*
X267373123Y-102830380D01*
X267801695Y-102925619D02*
X267849314Y-102878000D01*
X267944552Y-102830380D01*
X268182647Y-102830380D01*
X268277885Y-102878000D01*
X268325504Y-102925619D01*
X268373123Y-103020857D01*
X268373123Y-103116095D01*
X268325504Y-103258952D01*
X267754076Y-103830380D01*
X268373123Y-103830380D01*
X266168380Y-102362000D02*
X266406476Y-102362000D01*
X266311238Y-102600095D02*
X266406476Y-102362000D01*
X266311238Y-102123904D01*
X266596952Y-102504857D02*
X266406476Y-102362000D01*
X266596952Y-102219142D01*
X266168380Y-102362000D02*
X266406476Y-102362000D01*
X266311238Y-102600095D02*
X266406476Y-102362000D01*
X266311238Y-102123904D01*
X266596952Y-102504857D02*
X266406476Y-102362000D01*
X266596952Y-102219142D01*
%TO.C,C8*%
X270359142Y-98718666D02*
X270406761Y-98766285D01*
X270454380Y-98909142D01*
X270454380Y-99004380D01*
X270406761Y-99147238D01*
X270311523Y-99242476D01*
X270216285Y-99290095D01*
X270025809Y-99337714D01*
X269882952Y-99337714D01*
X269692476Y-99290095D01*
X269597238Y-99242476D01*
X269502000Y-99147238D01*
X269454380Y-99004380D01*
X269454380Y-98909142D01*
X269502000Y-98766285D01*
X269549619Y-98718666D01*
X269882952Y-98147238D02*
X269835333Y-98242476D01*
X269787714Y-98290095D01*
X269692476Y-98337714D01*
X269644857Y-98337714D01*
X269549619Y-98290095D01*
X269502000Y-98242476D01*
X269454380Y-98147238D01*
X269454380Y-97956761D01*
X269502000Y-97861523D01*
X269549619Y-97813904D01*
X269644857Y-97766285D01*
X269692476Y-97766285D01*
X269787714Y-97813904D01*
X269835333Y-97861523D01*
X269882952Y-97956761D01*
X269882952Y-98147238D01*
X269930571Y-98242476D01*
X269978190Y-98290095D01*
X270073428Y-98337714D01*
X270263904Y-98337714D01*
X270359142Y-98290095D01*
X270406761Y-98242476D01*
X270454380Y-98147238D01*
X270454380Y-97956761D01*
X270406761Y-97861523D01*
X270359142Y-97813904D01*
X270263904Y-97766285D01*
X270073428Y-97766285D01*
X269978190Y-97813904D01*
X269930571Y-97861523D01*
X269882952Y-97956761D01*
%TO.C,C4*%
X85532933Y-108002342D02*
X85485314Y-108049961D01*
X85342457Y-108097580D01*
X85247219Y-108097580D01*
X85104361Y-108049961D01*
X85009123Y-107954723D01*
X84961504Y-107859485D01*
X84913885Y-107669009D01*
X84913885Y-107526152D01*
X84961504Y-107335676D01*
X85009123Y-107240438D01*
X85104361Y-107145200D01*
X85247219Y-107097580D01*
X85342457Y-107097580D01*
X85485314Y-107145200D01*
X85532933Y-107192819D01*
X86390076Y-107430914D02*
X86390076Y-108097580D01*
X86151980Y-107049961D02*
X85913885Y-107764247D01*
X86532933Y-107764247D01*
%TO.C,SW2*%
X148577466Y-104900361D02*
X148720323Y-104947980D01*
X148958419Y-104947980D01*
X149053657Y-104900361D01*
X149101276Y-104852742D01*
X149148895Y-104757504D01*
X149148895Y-104662266D01*
X149101276Y-104567028D01*
X149053657Y-104519409D01*
X148958419Y-104471790D01*
X148767942Y-104424171D01*
X148672704Y-104376552D01*
X148625085Y-104328933D01*
X148577466Y-104233695D01*
X148577466Y-104138457D01*
X148625085Y-104043219D01*
X148672704Y-103995600D01*
X148767942Y-103947980D01*
X149006038Y-103947980D01*
X149148895Y-103995600D01*
X149482228Y-103947980D02*
X149720323Y-104947980D01*
X149910800Y-104233695D01*
X150101276Y-104947980D01*
X150339371Y-103947980D01*
X150672704Y-104043219D02*
X150720323Y-103995600D01*
X150815561Y-103947980D01*
X151053657Y-103947980D01*
X151148895Y-103995600D01*
X151196514Y-104043219D01*
X151244133Y-104138457D01*
X151244133Y-104233695D01*
X151196514Y-104376552D01*
X150625085Y-104947980D01*
X151244133Y-104947980D01*
%TO.C,Q1*%
X99929961Y-90412819D02*
X99834723Y-90365200D01*
X99739485Y-90269961D01*
X99596628Y-90127104D01*
X99501390Y-90079485D01*
X99406152Y-90079485D01*
X99453771Y-90317580D02*
X99358533Y-90269961D01*
X99263295Y-90174723D01*
X99215676Y-89984247D01*
X99215676Y-89650914D01*
X99263295Y-89460438D01*
X99358533Y-89365200D01*
X99453771Y-89317580D01*
X99644247Y-89317580D01*
X99739485Y-89365200D01*
X99834723Y-89460438D01*
X99882342Y-89650914D01*
X99882342Y-89984247D01*
X99834723Y-90174723D01*
X99739485Y-90269961D01*
X99644247Y-90317580D01*
X99453771Y-90317580D01*
X100834723Y-90317580D02*
X100263295Y-90317580D01*
X100549009Y-90317580D02*
X100549009Y-89317580D01*
X100453771Y-89460438D01*
X100358533Y-89555676D01*
X100263295Y-89603295D01*
%TO.C,R2*%
X103719333Y-89987380D02*
X103386000Y-89511190D01*
X103147904Y-89987380D02*
X103147904Y-88987380D01*
X103528857Y-88987380D01*
X103624095Y-89035000D01*
X103671714Y-89082619D01*
X103719333Y-89177857D01*
X103719333Y-89320714D01*
X103671714Y-89415952D01*
X103624095Y-89463571D01*
X103528857Y-89511190D01*
X103147904Y-89511190D01*
X104100285Y-89082619D02*
X104147904Y-89035000D01*
X104243142Y-88987380D01*
X104481238Y-88987380D01*
X104576476Y-89035000D01*
X104624095Y-89082619D01*
X104671714Y-89177857D01*
X104671714Y-89273095D01*
X104624095Y-89415952D01*
X104052666Y-89987380D01*
X104671714Y-89987380D01*
%TO.C,R10*%
X97934542Y-109925380D02*
X97601209Y-109449190D01*
X97363114Y-109925380D02*
X97363114Y-108925380D01*
X97744066Y-108925380D01*
X97839304Y-108973000D01*
X97886923Y-109020619D01*
X97934542Y-109115857D01*
X97934542Y-109258714D01*
X97886923Y-109353952D01*
X97839304Y-109401571D01*
X97744066Y-109449190D01*
X97363114Y-109449190D01*
X98886923Y-109925380D02*
X98315495Y-109925380D01*
X98601209Y-109925380D02*
X98601209Y-108925380D01*
X98505971Y-109068238D01*
X98410733Y-109163476D01*
X98315495Y-109211095D01*
X99505971Y-108925380D02*
X99601209Y-108925380D01*
X99696447Y-108973000D01*
X99744066Y-109020619D01*
X99791685Y-109115857D01*
X99839304Y-109306333D01*
X99839304Y-109544428D01*
X99791685Y-109734904D01*
X99744066Y-109830142D01*
X99696447Y-109877761D01*
X99601209Y-109925380D01*
X99505971Y-109925380D01*
X99410733Y-109877761D01*
X99363114Y-109830142D01*
X99315495Y-109734904D01*
X99267876Y-109544428D01*
X99267876Y-109306333D01*
X99315495Y-109115857D01*
X99363114Y-109020619D01*
X99410733Y-108973000D01*
X99505971Y-108925380D01*
%TO.C,U4*%
X76708095Y-97001380D02*
X76708095Y-97810904D01*
X76755714Y-97906142D01*
X76803333Y-97953761D01*
X76898571Y-98001380D01*
X77089047Y-98001380D01*
X77184285Y-97953761D01*
X77231904Y-97906142D01*
X77279523Y-97810904D01*
X77279523Y-97001380D01*
X78184285Y-97334714D02*
X78184285Y-98001380D01*
X77946190Y-96953761D02*
X77708095Y-97668047D01*
X78327142Y-97668047D01*
%TO.C,D3*%
X103224104Y-111272580D02*
X103224104Y-110272580D01*
X103462200Y-110272580D01*
X103605057Y-110320200D01*
X103700295Y-110415438D01*
X103747914Y-110510676D01*
X103795533Y-110701152D01*
X103795533Y-110844009D01*
X103747914Y-111034485D01*
X103700295Y-111129723D01*
X103605057Y-111224961D01*
X103462200Y-111272580D01*
X103224104Y-111272580D01*
X104128866Y-110272580D02*
X104747914Y-110272580D01*
X104414580Y-110653533D01*
X104557438Y-110653533D01*
X104652676Y-110701152D01*
X104700295Y-110748771D01*
X104747914Y-110844009D01*
X104747914Y-111082104D01*
X104700295Y-111177342D01*
X104652676Y-111224961D01*
X104557438Y-111272580D01*
X104271723Y-111272580D01*
X104176485Y-111224961D01*
X104128866Y-111177342D01*
%TO.C,M1*%
X113680476Y-99347380D02*
X113680476Y-98347380D01*
X114013809Y-99061666D01*
X114347142Y-98347380D01*
X114347142Y-99347380D01*
X115347142Y-99347380D02*
X114775714Y-99347380D01*
X115061428Y-99347380D02*
X115061428Y-98347380D01*
X114966190Y-98490238D01*
X114870952Y-98585476D01*
X114775714Y-98633095D01*
%TO.C,R5*%
X77201733Y-105557580D02*
X76868400Y-105081390D01*
X76630304Y-105557580D02*
X76630304Y-104557580D01*
X77011257Y-104557580D01*
X77106495Y-104605200D01*
X77154114Y-104652819D01*
X77201733Y-104748057D01*
X77201733Y-104890914D01*
X77154114Y-104986152D01*
X77106495Y-105033771D01*
X77011257Y-105081390D01*
X76630304Y-105081390D01*
X78106495Y-104557580D02*
X77630304Y-104557580D01*
X77582685Y-105033771D01*
X77630304Y-104986152D01*
X77725542Y-104938533D01*
X77963638Y-104938533D01*
X78058876Y-104986152D01*
X78106495Y-105033771D01*
X78154114Y-105129009D01*
X78154114Y-105367104D01*
X78106495Y-105462342D01*
X78058876Y-105509961D01*
X77963638Y-105557580D01*
X77725542Y-105557580D01*
X77630304Y-105509961D01*
X77582685Y-105462342D01*
%TO.C,SW1*%
X148628266Y-96619961D02*
X148771123Y-96667580D01*
X149009219Y-96667580D01*
X149104457Y-96619961D01*
X149152076Y-96572342D01*
X149199695Y-96477104D01*
X149199695Y-96381866D01*
X149152076Y-96286628D01*
X149104457Y-96239009D01*
X149009219Y-96191390D01*
X148818742Y-96143771D01*
X148723504Y-96096152D01*
X148675885Y-96048533D01*
X148628266Y-95953295D01*
X148628266Y-95858057D01*
X148675885Y-95762819D01*
X148723504Y-95715200D01*
X148818742Y-95667580D01*
X149056838Y-95667580D01*
X149199695Y-95715200D01*
X149533028Y-95667580D02*
X149771123Y-96667580D01*
X149961600Y-95953295D01*
X150152076Y-96667580D01*
X150390171Y-95667580D01*
X151294933Y-96667580D02*
X150723504Y-96667580D01*
X151009219Y-96667580D02*
X151009219Y-95667580D01*
X150913980Y-95810438D01*
X150818742Y-95905676D01*
X150723504Y-95953295D01*
%TO.C,R9*%
X143749733Y-102332780D02*
X143416400Y-101856590D01*
X143178304Y-102332780D02*
X143178304Y-101332780D01*
X143559257Y-101332780D01*
X143654495Y-101380400D01*
X143702114Y-101428019D01*
X143749733Y-101523257D01*
X143749733Y-101666114D01*
X143702114Y-101761352D01*
X143654495Y-101808971D01*
X143559257Y-101856590D01*
X143178304Y-101856590D01*
X144225923Y-102332780D02*
X144416400Y-102332780D01*
X144511638Y-102285161D01*
X144559257Y-102237542D01*
X144654495Y-102094685D01*
X144702114Y-101904209D01*
X144702114Y-101523257D01*
X144654495Y-101428019D01*
X144606876Y-101380400D01*
X144511638Y-101332780D01*
X144321161Y-101332780D01*
X144225923Y-101380400D01*
X144178304Y-101428019D01*
X144130685Y-101523257D01*
X144130685Y-101761352D01*
X144178304Y-101856590D01*
X144225923Y-101904209D01*
X144321161Y-101951828D01*
X144511638Y-101951828D01*
X144606876Y-101904209D01*
X144654495Y-101856590D01*
X144702114Y-101761352D01*
%TO.C,C5*%
X263993333Y-101703142D02*
X263945714Y-101750761D01*
X263802857Y-101798380D01*
X263707619Y-101798380D01*
X263564761Y-101750761D01*
X263469523Y-101655523D01*
X263421904Y-101560285D01*
X263374285Y-101369809D01*
X263374285Y-101226952D01*
X263421904Y-101036476D01*
X263469523Y-100941238D01*
X263564761Y-100846000D01*
X263707619Y-100798380D01*
X263802857Y-100798380D01*
X263945714Y-100846000D01*
X263993333Y-100893619D01*
X264898095Y-100798380D02*
X264421904Y-100798380D01*
X264374285Y-101274571D01*
X264421904Y-101226952D01*
X264517142Y-101179333D01*
X264755238Y-101179333D01*
X264850476Y-101226952D01*
X264898095Y-101274571D01*
X264945714Y-101369809D01*
X264945714Y-101607904D01*
X264898095Y-101703142D01*
X264850476Y-101750761D01*
X264755238Y-101798380D01*
X264517142Y-101798380D01*
X264421904Y-101750761D01*
X264374285Y-101703142D01*
%TO.C,C3*%
X79716333Y-95861142D02*
X79668714Y-95908761D01*
X79525857Y-95956380D01*
X79430619Y-95956380D01*
X79287761Y-95908761D01*
X79192523Y-95813523D01*
X79144904Y-95718285D01*
X79097285Y-95527809D01*
X79097285Y-95384952D01*
X79144904Y-95194476D01*
X79192523Y-95099238D01*
X79287761Y-95004000D01*
X79430619Y-94956380D01*
X79525857Y-94956380D01*
X79668714Y-95004000D01*
X79716333Y-95051619D01*
X80049666Y-94956380D02*
X80668714Y-94956380D01*
X80335380Y-95337333D01*
X80478238Y-95337333D01*
X80573476Y-95384952D01*
X80621095Y-95432571D01*
X80668714Y-95527809D01*
X80668714Y-95765904D01*
X80621095Y-95861142D01*
X80573476Y-95908761D01*
X80478238Y-95956380D01*
X80192523Y-95956380D01*
X80097285Y-95908761D01*
X80049666Y-95861142D01*
%TO.C,C7*%
X88123733Y-108002342D02*
X88076114Y-108049961D01*
X87933257Y-108097580D01*
X87838019Y-108097580D01*
X87695161Y-108049961D01*
X87599923Y-107954723D01*
X87552304Y-107859485D01*
X87504685Y-107669009D01*
X87504685Y-107526152D01*
X87552304Y-107335676D01*
X87599923Y-107240438D01*
X87695161Y-107145200D01*
X87838019Y-107097580D01*
X87933257Y-107097580D01*
X88076114Y-107145200D01*
X88123733Y-107192819D01*
X88457066Y-107097580D02*
X89123733Y-107097580D01*
X88695161Y-108097580D01*
%TO.C,R7*%
X97470933Y-100375980D02*
X97137600Y-99899790D01*
X96899504Y-100375980D02*
X96899504Y-99375980D01*
X97280457Y-99375980D01*
X97375695Y-99423600D01*
X97423314Y-99471219D01*
X97470933Y-99566457D01*
X97470933Y-99709314D01*
X97423314Y-99804552D01*
X97375695Y-99852171D01*
X97280457Y-99899790D01*
X96899504Y-99899790D01*
X97804266Y-99375980D02*
X98470933Y-99375980D01*
X98042361Y-100375980D01*
%TO.C,C1*%
X76795333Y-89024642D02*
X76747714Y-89072261D01*
X76604857Y-89119880D01*
X76509619Y-89119880D01*
X76366761Y-89072261D01*
X76271523Y-88977023D01*
X76223904Y-88881785D01*
X76176285Y-88691309D01*
X76176285Y-88548452D01*
X76223904Y-88357976D01*
X76271523Y-88262738D01*
X76366761Y-88167500D01*
X76509619Y-88119880D01*
X76604857Y-88119880D01*
X76747714Y-88167500D01*
X76795333Y-88215119D01*
X77747714Y-89119880D02*
X77176285Y-89119880D01*
X77462000Y-89119880D02*
X77462000Y-88119880D01*
X77366761Y-88262738D01*
X77271523Y-88357976D01*
X77176285Y-88405595D01*
D12*
%TO.C,C6*%
X262892000Y-98659733D02*
X262892000Y-98952267D01*
X261872000Y-98659733D02*
X261872000Y-98952267D01*
%TO.C,R4*%
X98350336Y-106297400D02*
X98804464Y-106297400D01*
X98350336Y-104827400D02*
X98804464Y-104827400D01*
%TO.C,C2*%
X88631752Y-91667000D02*
X88109248Y-91667000D01*
X88631752Y-90197000D02*
X88109248Y-90197000D01*
%TO.C,J4*%
X78994000Y-106188200D02*
X73854000Y-106188200D01*
X73854000Y-106188200D02*
X73854000Y-108848200D01*
X78994000Y-106188200D02*
X78994000Y-108848200D01*
X81594000Y-106188200D02*
X81594000Y-107518200D01*
X78994000Y-108848200D02*
X73854000Y-108848200D01*
X80264000Y-106188200D02*
X81594000Y-106188200D01*
%TO.C,R1*%
X95531000Y-92355936D02*
X95531000Y-92810064D01*
X97001000Y-92355936D02*
X97001000Y-92810064D01*
%TO.C,J3*%
X125670000Y-97095000D02*
X135950000Y-97095000D01*
X128270000Y-102295000D02*
X128270000Y-99695000D01*
X128270000Y-99695000D02*
X125670000Y-99695000D01*
X135950000Y-102295000D02*
X135950000Y-97095000D01*
X125670000Y-99695000D02*
X125670000Y-97095000D01*
X125670000Y-102295000D02*
X125670000Y-100965000D01*
X128270000Y-102295000D02*
X135950000Y-102295000D01*
X127000000Y-102295000D02*
X125670000Y-102295000D01*
%TO.C,U1*%
X70895000Y-93005000D02*
X70895000Y-91865000D01*
X70665000Y-89145000D02*
X71975000Y-89145000D01*
X70665000Y-91865000D02*
X70895000Y-91865000D01*
X74075000Y-89145000D02*
X75385000Y-89145000D01*
X70665000Y-91865000D02*
X70665000Y-89145000D01*
X75385000Y-91865000D02*
X75155000Y-91865000D01*
X75385000Y-89145000D02*
X75385000Y-91865000D01*
%TO.C,R3*%
X94006936Y-105256000D02*
X94461064Y-105256000D01*
X94006936Y-103786000D02*
X94461064Y-103786000D01*
%TO.C,R6*%
X94006936Y-102843000D02*
X94461064Y-102843000D01*
X94006936Y-101373000D02*
X94461064Y-101373000D01*
%TO.C,R8*%
X110136000Y-91085936D02*
X110136000Y-91540064D01*
X111606000Y-91085936D02*
X111606000Y-91540064D01*
%TO.C,Q2*%
X111084800Y-106172000D02*
X111084800Y-106822000D01*
X107964800Y-106172000D02*
X107964800Y-105522000D01*
X107964800Y-106172000D02*
X107964800Y-107847000D01*
X111084800Y-106172000D02*
X111084800Y-105522000D01*
%TO.C,J2*%
X158810000Y-107950000D02*
X156150000Y-107950000D01*
X158810000Y-90110000D02*
X156150000Y-90110000D01*
X156150000Y-107950000D02*
X156150000Y-90110000D01*
X158810000Y-109220000D02*
X158810000Y-110550000D01*
X158810000Y-110550000D02*
X157480000Y-110550000D01*
X158810000Y-107950000D02*
X158810000Y-90110000D01*
%TO.C,D1*%
X278695000Y-103080000D02*
X278695000Y-101930000D01*
X271395000Y-97580000D02*
X278695000Y-97580000D01*
X271395000Y-103080000D02*
X278695000Y-103080000D01*
D11*
%TO.C,J1*%
X71135000Y-96180000D02*
X69735000Y-96180000D01*
X67185000Y-104480000D02*
X67335000Y-104480000D01*
X73310000Y-98530000D02*
X72885000Y-98530000D01*
X66735000Y-104180000D02*
X67185000Y-104180000D01*
X67185000Y-96480000D02*
X66735000Y-96480000D01*
X67185000Y-104180000D02*
X67185000Y-104480000D01*
X72885000Y-98530000D02*
X72885000Y-97805000D01*
X67335000Y-96180000D02*
X67185000Y-96180000D01*
X67185000Y-96180000D02*
X67185000Y-96480000D01*
X72885000Y-102130000D02*
X72885000Y-102855000D01*
X69735000Y-104480000D02*
X71135000Y-104480000D01*
X73310000Y-99255000D02*
X73310000Y-98530000D01*
D12*
%TO.C,C9*%
X105224948Y-105078200D02*
X105747452Y-105078200D01*
X105224948Y-103608200D02*
X105747452Y-103608200D01*
D11*
%TO.C,U3*%
X82608000Y-93911000D02*
X82933000Y-93911000D01*
X82608000Y-101161000D02*
X82933000Y-101161000D01*
X89858000Y-101161000D02*
X89533000Y-101161000D01*
X89858000Y-101161000D02*
X89858000Y-100936000D01*
X89858000Y-93911000D02*
X89533000Y-93911000D01*
X89858000Y-93911000D02*
X89858000Y-94236000D01*
X82608000Y-93911000D02*
X82608000Y-94236000D01*
X89858000Y-100936000D02*
X91283000Y-100936000D01*
X82608000Y-101161000D02*
X82608000Y-100836000D01*
D13*
%TO.C,U2*%
X266344400Y-101235585D02*
X266344400Y-101955600D01*
X269087600Y-99424415D02*
X269087600Y-98704400D01*
X268860182Y-101955600D02*
X269087600Y-101955600D01*
X266571818Y-98704400D02*
X266344400Y-98704400D01*
X269087600Y-101955600D02*
X269087600Y-101235585D01*
X266344400Y-101955600D02*
X266571818Y-101955600D01*
X269087600Y-98704400D02*
X268860182Y-98704400D01*
X266344400Y-98704400D02*
X266344400Y-99424415D01*
G36*
X267656501Y-98679000D02*
G01*
X267275500Y-98679000D01*
X267275500Y-98425000D01*
X267656501Y-98425000D01*
X267656501Y-98679000D01*
G37*
D12*
%TO.C,C8*%
X270512000Y-100945733D02*
X270512000Y-101238267D01*
X269492000Y-100945733D02*
X269492000Y-101238267D01*
%TO.C,C4*%
X84990000Y-104767748D02*
X84990000Y-105290252D01*
X86460000Y-104767748D02*
X86460000Y-105290252D01*
%TO.C,SW2*%
X153110000Y-105820000D02*
X153110000Y-106470000D01*
X146610000Y-111970000D02*
X146610000Y-112620000D01*
X153110000Y-110470000D02*
X153110000Y-107970000D01*
X146610000Y-106470000D02*
X146610000Y-105820000D01*
X146610000Y-105820000D02*
X153110000Y-105820000D01*
X153110000Y-112620000D02*
X153110000Y-111970000D01*
X146610000Y-110470000D02*
X146610000Y-107970000D01*
X146610000Y-112620000D02*
X153110000Y-112620000D01*
%TO.C,Q1*%
X98389000Y-92758500D02*
X98389000Y-94433500D01*
X101509000Y-92758500D02*
X101509000Y-92108500D01*
X101509000Y-92758500D02*
X101509000Y-93408500D01*
X98389000Y-92758500D02*
X98389000Y-92108500D01*
%TO.C,R2*%
X103151000Y-92302064D02*
X103151000Y-91847936D01*
X104621000Y-92302064D02*
X104621000Y-91847936D01*
%TO.C,R10*%
X98804464Y-108558000D02*
X98350336Y-108558000D01*
X98804464Y-107088000D02*
X98350336Y-107088000D01*
%TO.C,U4*%
X77470000Y-98389000D02*
X75670000Y-98389000D01*
X77470000Y-98389000D02*
X78270000Y-98389000D01*
X77470000Y-101509000D02*
X78270000Y-101509000D01*
X77470000Y-101509000D02*
X76670000Y-101509000D01*
%TO.C,D3*%
X100564600Y-109871400D02*
X106264600Y-109871400D01*
X100564600Y-105571400D02*
X106264600Y-105571400D01*
X100564600Y-105571400D02*
X100564600Y-109871400D01*
%TO.C,M1*%
X105990000Y-103195000D02*
X100490000Y-103195000D01*
X106990000Y-96195000D02*
X119990000Y-96195000D01*
X119990000Y-98695000D02*
X120490000Y-98695000D01*
X119990000Y-96195000D02*
X119990000Y-98695000D01*
X106990000Y-103195000D02*
X106990000Y-100195000D01*
X105990000Y-100195000D02*
X105990000Y-99195000D01*
X106990000Y-100195000D02*
X105990000Y-100195000D01*
X120490000Y-100695000D02*
X119990000Y-100695000D01*
X106990000Y-99195000D02*
X106990000Y-96195000D01*
X100490000Y-96195000D02*
X105990000Y-96195000D01*
X120490000Y-98695000D02*
X120490000Y-100695000D01*
X100490000Y-103195000D02*
X100490000Y-96195000D01*
X119990000Y-103195000D02*
X106990000Y-103195000D01*
X119990000Y-100695000D02*
X119990000Y-103195000D01*
X105990000Y-96195000D02*
X105990000Y-103195000D01*
X105990000Y-99195000D02*
X106990000Y-99195000D01*
G36*
X105990000Y-101195000D02*
G01*
X100490000Y-101195000D01*
X100490000Y-96195000D01*
X105990000Y-96195000D01*
X105990000Y-101195000D01*
G37*
X105990000Y-101195000D02*
X100490000Y-101195000D01*
X100490000Y-96195000D01*
X105990000Y-96195000D01*
X105990000Y-101195000D01*
%TO.C,R5*%
X77697064Y-104240000D02*
X77242936Y-104240000D01*
X77697064Y-102770000D02*
X77242936Y-102770000D01*
%TO.C,SW1*%
X153110000Y-88690000D02*
X153110000Y-88040000D01*
X153110000Y-94840000D02*
X146610000Y-94840000D01*
X153110000Y-90190000D02*
X153110000Y-92690000D01*
X153110000Y-88040000D02*
X146610000Y-88040000D01*
X153110000Y-94190000D02*
X153110000Y-94840000D01*
X146610000Y-90190000D02*
X146610000Y-92690000D01*
X146610000Y-94840000D02*
X146610000Y-94190000D01*
X146610000Y-88040000D02*
X146610000Y-88690000D01*
%TO.C,R9*%
X143689336Y-104265400D02*
X144143464Y-104265400D01*
X143689336Y-102795400D02*
X144143464Y-102795400D01*
%TO.C,C5*%
X263650000Y-98659733D02*
X263650000Y-98952267D01*
X264670000Y-98659733D02*
X264670000Y-98952267D01*
%TO.C,C3*%
X77081748Y-94769000D02*
X77604252Y-94769000D01*
X77081748Y-96239000D02*
X77604252Y-96239000D01*
%TO.C,C7*%
X88746000Y-104767748D02*
X88746000Y-105290252D01*
X87276000Y-104767748D02*
X87276000Y-105290252D01*
%TO.C,R7*%
X94006936Y-98960000D02*
X94461064Y-98960000D01*
X94006936Y-100430000D02*
X94461064Y-100430000D01*
%TO.C,C1*%
X77697000Y-91701252D02*
X77697000Y-91178748D01*
X76227000Y-91701252D02*
X76227000Y-91178748D01*
%TD*%
M02*
