M48
; DRILL file {KiCad (6.0.5)} date Wed Mar 26 17:35:53 2025
; FORMAT={-:-/ absolute / inch / decimal}
; #@! TF.CreationDate,2025-03-26T17:35:53-04:00
; #@! TF.GenerationSoftware,Kicad,Pcbnew,(6.0.5)
; #@! TF.FileFunction,Plated,1,2,PTH
FMAT,2
INCH
; #@! TA.AperFunction,Plated,PTH,ViaDrill
T1C0.0157
; #@! TA.AperFunction,Plated,PTH,ComponentDrill
T2C0.0276
; #@! TA.AperFunction,Plated,PTH,ComponentDrill
T3C0.0354
; #@! TA.AperFunction,Plated,PTH,ComponentDrill
T4C0.0394
; #@! TA.AperFunction,Plated,PTH,ComponentDrill
T5C0.0472
; #@! TA.AperFunction,Plated,PTH,ComponentDrill
T6C0.0551
%
G90
G05
T1
X2.561Y-4.351
X2.565Y-3.55
X2.756Y-3.639
X2.787Y-3.901
X2.787Y-3.951
X2.788Y-4.0
X2.801Y-3.573
X2.817Y-3.704
X2.966Y-3.501
X2.966Y-3.559
X3.03Y-3.935
X3.031Y-3.501
X3.3097Y-3.8109
X3.31Y-4.07
X3.31Y-4.175
X3.3103Y-3.7712
X3.3107Y-3.7312
X3.35Y-3.73
X3.362Y-3.938
X3.374Y-4.234
X3.378Y-3.568
X3.394Y-3.938
X3.3958Y-3.6176
X3.418Y-4.232
X3.438Y-3.528
X3.465Y-4.232
X3.495Y-3.7278
X3.495Y-3.828
X3.505Y-3.92
X3.5571Y-3.6222
X3.565Y-3.9788
X3.62Y-4.11
X3.6334Y-4.0516
X3.6353Y-3.9603
X3.64Y-3.73
X3.68Y-3.7957
X3.7131Y-3.76
X3.7131Y-3.8345
X3.727Y-4.21
X3.7675Y-4.167
X3.7857Y-3.7316
X3.7857Y-3.78
X3.7857Y-3.8345
X3.7966Y-4.11
X3.7998Y-3.9952
X3.8Y-3.955
X3.8022Y-3.9093
X3.805Y-3.87
X3.815Y-3.5
X3.8585Y-3.5013
X3.8849Y-3.817
X3.885Y-3.6844
X3.92Y-4.097
X4.02Y-3.615
X4.059Y-3.926
X4.144Y-4.123
X4.2319Y-3.6715
X4.232Y-4.086
X4.28Y-3.56
X4.315Y-4.216
X4.4232Y-4.1212
X4.439Y-4.185
X4.4441Y-3.5309
X4.539Y-3.566
X5.3878Y-4.0128
X5.39Y-3.88
X5.4852Y-3.8752
X5.51Y-4.0235
X5.535Y-3.9498
X5.545Y-4.189
X5.565Y-3.8035
X5.895Y-4.38
X5.9Y-3.52
X5.96Y-3.735
X5.96Y-4.085
X6.05Y-3.63
X6.327Y-4.193
X6.331Y-3.542
X6.394Y-3.864
X10.244Y-3.862
X10.365Y-3.895
X10.365Y-3.925
X10.44Y-3.895
X10.54Y-3.95
X10.6Y-4.0
X10.679Y-4.01
X10.827Y-4.013
X10.91Y-3.95
X10.94Y-3.95
T2
X4.2319Y-3.8699
X4.2319Y-3.9801
T3
X4.2319Y-3.925
X4.7043Y-3.925
T4
X2.96Y-4.233
X3.06Y-4.233
X3.16Y-4.233
X5.0Y-3.875
X5.0Y-3.975
X5.1Y-3.875
X5.1Y-3.975
X5.2Y-3.875
X5.2Y-3.975
X5.3Y-3.875
X5.3Y-3.975
X6.2Y-3.6
X6.2Y-3.7
X6.2Y-3.8
X6.2Y-3.9
X6.2Y-4.0
X6.2Y-4.1
X6.2Y-4.2
X6.2Y-4.3
T5
X2.6982Y-3.7974
X2.6982Y-4.1026
T6
X2.8478Y-3.8033
X2.8478Y-4.0967
T0
M30
