%TF.GenerationSoftware,KiCad,Pcbnew,(6.0.5)*%
%TF.CreationDate,2025-03-26T17:35:59-04:00*%
%TF.ProjectId,Wand,57616e64-2e6b-4696-9361-645f70636258,rev?*%
%TF.SameCoordinates,Original*%
%TF.FileFunction,Soldermask,Top*%
%TF.FilePolarity,Negative*%
%FSLAX46Y46*%
G04 Gerber Fmt 4.6, Leading zero omitted, Abs format (unit mm)*
G04 Created by KiCad (PCBNEW (6.0.5)) date 2025-03-26 17:35:59*
%MOMM*%
%LPD*%
G01*
G04 APERTURE LIST*
G04 Aperture macros list*
%AMRoundRect*
0 Rectangle with rounded corners*
0 $1 Rounding radius*
0 $2 $3 $4 $5 $6 $7 $8 $9 X,Y pos of 4 corners*
0 Add a 4 corners polygon primitive as box body*
4,1,4,$2,$3,$4,$5,$6,$7,$8,$9,$2,$3,0*
0 Add four circle primitives for the rounded corners*
1,1,$1+$1,$2,$3*
1,1,$1+$1,$4,$5*
1,1,$1+$1,$6,$7*
1,1,$1+$1,$8,$9*
0 Add four rect primitives between the rounded corners*
20,1,$1+$1,$2,$3,$4,$5,0*
20,1,$1+$1,$4,$5,$6,$7,0*
20,1,$1+$1,$6,$7,$8,$9,0*
20,1,$1+$1,$8,$9,$2,$3,0*%
%AMFreePoly0*
4,1,9,3.862500,-0.866500,0.737500,-0.866500,0.737500,-0.450000,-0.737500,-0.450000,-0.737500,0.450000,0.737500,0.450000,0.737500,0.866500,3.862500,0.866500,3.862500,-0.866500,3.862500,-0.866500,$1*%
G04 Aperture macros list end*
%ADD10RoundRect,0.237500X-0.237500X0.300000X-0.237500X-0.300000X0.237500X-0.300000X0.237500X0.300000X0*%
%ADD11RoundRect,0.250000X-0.350000X-0.450000X0.350000X-0.450000X0.350000X0.450000X-0.350000X0.450000X0*%
%ADD12RoundRect,0.250000X0.337500X0.475000X-0.337500X0.475000X-0.337500X-0.475000X0.337500X-0.475000X0*%
%ADD13R,1.700000X1.700000*%
%ADD14O,1.700000X1.700000*%
%ADD15RoundRect,0.250000X-0.450000X0.350000X-0.450000X-0.350000X0.450000X-0.350000X0.450000X0.350000X0*%
%ADD16R,0.900000X1.300000*%
%ADD17FreePoly0,90.000000*%
%ADD18RoundRect,0.150000X0.150000X-0.587500X0.150000X0.587500X-0.150000X0.587500X-0.150000X-0.587500X0*%
%ADD19R,1.500000X1.000000*%
%ADD20C,0.800000*%
%ADD21R,1.300000X0.450000*%
%ADD22C,1.800000*%
%ADD23C,2.000000*%
%ADD24RoundRect,0.250000X-0.337500X-0.475000X0.337500X-0.475000X0.337500X0.475000X-0.337500X0.475000X0*%
%ADD25R,1.600000X0.550000*%
%ADD26R,0.550000X1.600000*%
%ADD27R,0.304800X0.533400*%
%ADD28R,0.533400X0.304800*%
%ADD29RoundRect,0.250000X-0.475000X0.337500X-0.475000X-0.337500X0.475000X-0.337500X0.475000X0.337500X0*%
%ADD30R,2.750000X1.000000*%
%ADD31RoundRect,0.250000X0.450000X-0.350000X0.450000X0.350000X-0.450000X0.350000X-0.450000X-0.350000X0*%
%ADD32RoundRect,0.250000X0.350000X0.450000X-0.350000X0.450000X-0.350000X-0.450000X0.350000X-0.450000X0*%
%ADD33RoundRect,0.150000X-0.512500X-0.150000X0.512500X-0.150000X0.512500X0.150000X-0.512500X0.150000X0*%
%ADD34R,2.500000X2.300000*%
%ADD35C,1.150000*%
%ADD36C,1.200000*%
%ADD37C,1.700000*%
%ADD38RoundRect,0.250000X0.475000X-0.337500X0.475000X0.337500X-0.475000X0.337500X-0.475000X-0.337500X0*%
G04 APERTURE END LIST*
D10*
%TO.C,C6*%
X262382000Y-97943500D03*
X262382000Y-99668500D03*
%TD*%
D11*
%TO.C,R4*%
X97577400Y-105562400D03*
X99577400Y-105562400D03*
%TD*%
D12*
%TO.C,C2*%
X89408000Y-90932000D03*
X87333000Y-90932000D03*
%TD*%
D13*
%TO.C,J4*%
X80264000Y-107518200D03*
D14*
X77724000Y-107518200D03*
X75184000Y-107518200D03*
%TD*%
D15*
%TO.C,R1*%
X96266000Y-91583000D03*
X96266000Y-93583000D03*
%TD*%
D13*
%TO.C,J3*%
X127000000Y-100965000D03*
D14*
X127000000Y-98425000D03*
X129540000Y-100965000D03*
X129540000Y-98425000D03*
X132080000Y-100965000D03*
X132080000Y-98425000D03*
X134620000Y-100965000D03*
X134620000Y-98425000D03*
%TD*%
D16*
%TO.C,U1*%
X71525000Y-92455000D03*
D17*
X73025000Y-92367500D03*
D16*
X74525000Y-92455000D03*
%TD*%
D11*
%TO.C,R3*%
X93234000Y-104521000D03*
X95234000Y-104521000D03*
%TD*%
%TO.C,R6*%
X93234000Y-102108000D03*
X95234000Y-102108000D03*
%TD*%
D15*
%TO.C,R8*%
X110871000Y-90313000D03*
X110871000Y-92313000D03*
%TD*%
D18*
%TO.C,Q2*%
X108574800Y-107109500D03*
X110474800Y-107109500D03*
X109524800Y-105234500D03*
%TD*%
D13*
%TO.C,J2*%
X157480000Y-109220000D03*
D14*
X157480000Y-106680000D03*
X157480000Y-104140000D03*
X157480000Y-101600000D03*
X157480000Y-99060000D03*
X157480000Y-96520000D03*
X157480000Y-93980000D03*
X157480000Y-91440000D03*
%TD*%
D19*
%TO.C,D1*%
X272595000Y-98730000D03*
X272595000Y-101930000D03*
X277495000Y-101930000D03*
X277495000Y-98730000D03*
%TD*%
D20*
%TO.C,J1*%
X71285000Y-97830000D03*
X71285000Y-102830000D03*
D21*
X72385000Y-99030000D03*
X72385000Y-99680000D03*
X72385000Y-100330000D03*
X72385000Y-100980000D03*
X72385000Y-101630000D03*
D22*
X68535000Y-104205000D03*
D23*
X72335000Y-104055000D03*
X72335000Y-96605000D03*
D22*
X68535000Y-96455000D03*
%TD*%
D24*
%TO.C,C9*%
X104448700Y-104343200D03*
X106523700Y-104343200D03*
%TD*%
D25*
%TO.C,U3*%
X90483000Y-100336000D03*
X90483000Y-99536000D03*
X90483000Y-98736000D03*
X90483000Y-97936000D03*
X90483000Y-97136000D03*
X90483000Y-96336000D03*
X90483000Y-95536000D03*
X90483000Y-94736000D03*
D26*
X89033000Y-93286000D03*
X88233000Y-93286000D03*
X87433000Y-93286000D03*
X86633000Y-93286000D03*
X85833000Y-93286000D03*
X85033000Y-93286000D03*
X84233000Y-93286000D03*
X83433000Y-93286000D03*
D25*
X81983000Y-94736000D03*
X81983000Y-95536000D03*
X81983000Y-96336000D03*
X81983000Y-97136000D03*
X81983000Y-97936000D03*
X81983000Y-98736000D03*
X81983000Y-99536000D03*
X81983000Y-100336000D03*
D26*
X83433000Y-101786000D03*
X84233000Y-101786000D03*
X85033000Y-101786000D03*
X85833000Y-101786000D03*
X86633000Y-101786000D03*
X87433000Y-101786000D03*
X88233000Y-101786000D03*
X89033000Y-101786000D03*
%TD*%
D27*
%TO.C,U2*%
X266965999Y-101460300D03*
X267466000Y-101460300D03*
X267966000Y-101460300D03*
X268466001Y-101460300D03*
D28*
X268605000Y-100829999D03*
X268605000Y-100330000D03*
X268605000Y-99830001D03*
D27*
X268466001Y-99199700D03*
X267966000Y-99199700D03*
X267466000Y-99199700D03*
X266965999Y-99199700D03*
D28*
X266827000Y-99830001D03*
X266827000Y-100330000D03*
X266827000Y-100829999D03*
%TD*%
D10*
%TO.C,C8*%
X270002000Y-100229500D03*
X270002000Y-101954500D03*
%TD*%
D29*
%TO.C,C4*%
X85725000Y-103991500D03*
X85725000Y-106066500D03*
%TD*%
D30*
%TO.C,SW2*%
X152740000Y-111220000D03*
X146980000Y-111220000D03*
X152740000Y-107220000D03*
X146980000Y-107220000D03*
%TD*%
D18*
%TO.C,Q1*%
X98999000Y-93696000D03*
X100899000Y-93696000D03*
X99949000Y-91821000D03*
%TD*%
D31*
%TO.C,R2*%
X103886000Y-93075000D03*
X103886000Y-91075000D03*
%TD*%
D32*
%TO.C,R10*%
X99577400Y-107823000D03*
X97577400Y-107823000D03*
%TD*%
D33*
%TO.C,U4*%
X76332500Y-98999000D03*
X76332500Y-99949000D03*
X76332500Y-100899000D03*
X78607500Y-100899000D03*
X78607500Y-99949000D03*
X78607500Y-98999000D03*
%TD*%
D34*
%TO.C,D3*%
X101964600Y-107721400D03*
X106264600Y-107721400D03*
%TD*%
D35*
%TO.C,M1*%
X107490000Y-98295000D03*
X107490000Y-101095000D03*
D36*
X107490000Y-99695000D03*
D37*
X119490000Y-99695000D03*
%TD*%
D32*
%TO.C,R5*%
X78470000Y-103505000D03*
X76470000Y-103505000D03*
%TD*%
D30*
%TO.C,SW1*%
X146980000Y-89440000D03*
X152740000Y-89440000D03*
X152740000Y-93440000D03*
X146980000Y-93440000D03*
%TD*%
D11*
%TO.C,R9*%
X142916400Y-103530400D03*
X144916400Y-103530400D03*
%TD*%
D10*
%TO.C,C5*%
X264160000Y-97943500D03*
X264160000Y-99668500D03*
%TD*%
D24*
%TO.C,C3*%
X76305500Y-95504000D03*
X78380500Y-95504000D03*
%TD*%
D29*
%TO.C,C7*%
X88011000Y-103991500D03*
X88011000Y-106066500D03*
%TD*%
D11*
%TO.C,R7*%
X93234000Y-99695000D03*
X95234000Y-99695000D03*
%TD*%
D38*
%TO.C,C1*%
X76962000Y-92477500D03*
X76962000Y-90402500D03*
%TD*%
M02*
