%TF.GenerationSoftware,KiCad,Pcbnew,(6.0.5)*%
%TF.CreationDate,2025-03-26T17:35:59-04:00*%
%TF.ProjectId,Wand,57616e64-2e6b-4696-9361-645f70636258,rev?*%
%TF.SameCoordinates,Original*%
%TF.FileFunction,Profile,NP*%
%FSLAX46Y46*%
G04 Gerber Fmt 4.6, Leading zero omitted, Abs format (unit mm)*
G04 Created by KiCad (PCBNEW (6.0.5)) date 2025-03-26 17:35:59*
%MOMM*%
%LPD*%
G01*
G04 APERTURE LIST*
%TA.AperFunction,Profile*%
%ADD10C,0.100000*%
%TD*%
G04 APERTURE END LIST*
D10*
X45720000Y-114300000D02*
X160020000Y-114300000D01*
X143510000Y-90170000D02*
G75*
G03*
X143510000Y-90170000I-1796051J0D01*
G01*
X55136051Y-110490000D02*
G75*
G03*
X55136051Y-110490000I-1796051J0D01*
G01*
X160020000Y-86360000D02*
X45720000Y-86360000D01*
X276860000Y-104140000D02*
G75*
G03*
X279400000Y-101600000I0J2540000D01*
G01*
X279400000Y-99060000D02*
G75*
G03*
X276860000Y-96520000I-2540000J0D01*
G01*
X66040000Y-106680000D02*
X45720000Y-106680000D01*
X43180000Y-88900000D02*
X43180000Y-91440000D01*
X161925000Y-88265000D02*
X161925000Y-96520000D01*
X161925000Y-96520000D02*
X276860000Y-96520000D01*
X279400000Y-99060000D02*
X279400000Y-101600000D01*
X143510000Y-110490000D02*
G75*
G03*
X143510000Y-110490000I-1796051J0D01*
G01*
X43180000Y-111760000D02*
G75*
G03*
X45720000Y-114300000I2540000J0D01*
G01*
X43180000Y-91440000D02*
G75*
G03*
X45720000Y-93980000I2540000J0D01*
G01*
X45720000Y-86360000D02*
G75*
G03*
X43180000Y-88900000I0J-2540000D01*
G01*
X161925000Y-104140000D02*
X161925000Y-112395000D01*
X45720000Y-93980000D02*
X66040000Y-93980000D01*
X160020000Y-114300000D02*
G75*
G03*
X161925000Y-112395000I0J1905000D01*
G01*
X61486051Y-90170000D02*
G75*
G03*
X61486051Y-90170000I-1796051J0D01*
G01*
X45720000Y-106680000D02*
G75*
G03*
X43180000Y-109220000I0J-2540000D01*
G01*
X48260000Y-110490000D02*
G75*
G03*
X48260000Y-110490000I-1796051J0D01*
G01*
X66040000Y-93980000D02*
X66040000Y-106680000D01*
X161925000Y-88265000D02*
G75*
G03*
X160020000Y-86360000I-1905000J0D01*
G01*
X276860000Y-104140000D02*
X161925000Y-104140000D01*
X48786051Y-90170000D02*
G75*
G03*
X48786051Y-90170000I-1796051J0D01*
G01*
X61486051Y-110490000D02*
G75*
G03*
X61486051Y-110490000I-1796051J0D01*
G01*
X43180000Y-109220000D02*
X43180000Y-111760000D01*
X55136051Y-90170000D02*
G75*
G03*
X55136051Y-90170000I-1796051J0D01*
G01*
M02*
